<?xml version="1.0" standalone="no"?>
<!DOCTYPE svg PUBLIC "-//W3C//DTD SVG 20010904//EN"
 "http://www.w3.org/TR/2001/REC-SVG-20010904/DTD/svg10.dtd">
<svg version="1.0" xmlns="http://www.w3.org/2000/svg"
 width="449.000000pt" height="500.000000pt" viewBox="0 0 449.000000 500.000000"
 preserveAspectRatio="xMidYMid meet">

<g transform="translate(0.000000,500.000000) scale(0.100000,-0.100000)"
fill="#000000" stroke="none">
<path d="M2209 4981 c-22 -17 -42 -23 -125 -37 l-31 -6 19 -36 c10 -20 18 -49
18 -65 0 -27 -3 -29 -27 -24 -16 3 -37 9 -47 13 -17 7 -19 4 -13 -30 4 -27 2
-43 -8 -53 -9 -9 -13 -24 -9 -38 3 -12 1 -26 -5 -29 -17 -11 -13 -41 8 -67 10
-13 16 -30 14 -36 -3 -7 5 -28 16 -47 12 -18 21 -43 21 -55 0 -21 24 -29 35
-11 3 5 24 14 46 20 28 8 46 21 59 43 19 31 20 31 20 7 -1 -100 -126 -201
-279 -224 -39 -6 -43 -5 -35 11 4 10 8 38 8 63 1 39 -3 46 -33 67 -19 13 -45
23 -57 23 -21 0 -24 5 -24 41 0 31 -6 47 -29 70 -76 75 -201 -6 -160 -104 11
-26 11 -31 -1 -35 -59 -20 -81 -109 -37 -150 13 -12 27 -22 32 -22 4 0 -4 11
-19 25 -32 30 -34 72 -5 109 25 32 50 33 89 4 88 -64 -30 -175 -162 -153 -63
11 -139 41 -173 70 l-30 26 48 -3 47 -3 0 52 c0 28 -4 55 -10 58 -5 3 -7 19
-4 35 5 22 1 33 -20 51 -14 12 -26 26 -26 30 0 11 -53 89 -60 89 -12 0 -60
-81 -60 -101 0 -10 -4 -19 -10 -19 -13 0 -13 10 1 48 9 27 8 36 -9 59 -11 16
-22 39 -23 52 l-4 24 -31 -26 c-18 -15 -44 -27 -59 -27 -37 0 -95 -61 -95 -99
0 -15 9 -36 19 -45 23 -21 66 -18 65 5 -1 9 7 21 17 27 29 18 42 -11 44 -96 2
-93 15 -119 70 -133 61 -15 83 -29 131 -82 38 -42 44 -55 44 -92 0 -47 16 -71
56 -81 29 -7 29 -8 8 -40 -16 -24 -16 -26 15 -57 37 -39 37 -41 11 -74 -27
-34 -25 -47 8 -84 25 -28 39 -33 133 -49 314 -54 1037 -59 1324 -9 100 17 146
78 95 124 -27 25 -25 47 7 79 26 26 26 28 11 53 -15 25 -15 27 24 63 35 35 38
40 27 63 -15 32 -1 53 48 74 18 7 47 26 65 42 18 16 53 34 76 41 67 18 100 72
79 130 -8 21 -4 31 31 69 28 30 45 42 57 38 19 -8 11 -27 -11 -27 -19 0 -14
-29 7 -43 42 -26 99 26 99 91 0 51 -60 93 -111 77 -15 -5 -18 -9 -9 -15 7 -5
8 -10 2 -14 -5 -3 -15 8 -22 24 -22 53 -37 57 -76 19 -48 -45 -67 -85 -59
-118 l7 -26 -26 24 c-14 14 -26 34 -26 45 -1 20 -2 20 -21 -3 -11 -14 -30 -30
-41 -35 -12 -6 -26 -20 -32 -31 -6 -11 -17 -25 -25 -31 -9 -7 -12 -21 -9 -39
3 -16 1 -37 -5 -47 -9 -13 -9 -23 0 -36 7 -12 8 -24 2 -33 -23 -37 0 -41 76
-14 16 5 15 3 -5 -13 -45 -37 -240 -71 -240 -42 0 6 4 10 9 10 9 0 17 16 31
63 5 17 5 25 -1 22 -5 -4 -9 -15 -9 -26 0 -11 -13 -33 -29 -49 -28 -29 -28
-29 -81 -15 -69 18 -77 27 -62 68 7 18 12 41 12 50 0 10 12 22 28 27 15 6 34
14 42 19 21 12 53 -2 79 -35 11 -14 21 -21 21 -15 0 14 -45 61 -58 61 -4 0 -8
24 -8 54 1 44 -4 59 -23 80 -70 74 -191 34 -191 -64 0 -25 -5 -31 -27 -36 -68
-14 -104 -86 -72 -146 10 -19 9 -20 -58 -13 -76 8 -106 21 -158 67 -48 41 -77
100 -73 146 l3 37 28 -43 c19 -29 42 -49 70 -61 49 -22 57 -19 57 17 0 15 7
36 15 46 8 11 15 26 15 34 0 8 11 27 25 43 20 24 22 34 15 54 -5 14 -7 38 -4
55 4 17 1 36 -5 44 -6 7 -8 27 -5 45 l7 33 -47 -7 c-41 -6 -46 -5 -46 11 0 11
9 39 20 63 11 24 18 46 16 49 -3 2 -19 5 -35 6 -17 1 -36 7 -43 14 -6 6 -23
12 -37 12 -15 0 -35 7 -45 15 -26 20 -48 19 -77 -4z m71 -8 c14 -10 37 -16 51
-15 15 2 30 -1 33 -7 7 -11 -39 -61 -57 -61 -7 0 -20 -9 -30 -20 -23 -27 -41
-25 -65 5 -11 14 -28 25 -37 25 -17 0 -44 26 -45 43 0 4 14 7 31 7 17 0 42 9
56 20 31 24 32 24 63 3z m-130 -80 c41 -42 60 -73 60 -99 0 -11 -11 0 -29 27
-15 24 -41 55 -56 69 l-29 25 25 -33 c61 -83 69 -96 69 -113 0 -11 5 -19 11
-19 8 0 8 -5 -1 -15 -7 -8 -17 -15 -23 -15 -6 0 -8 2 -5 5 3 3 -12 24 -34 47
-27 29 -38 50 -38 72 0 17 -7 43 -14 59 -14 25 -13 27 6 27 11 0 37 -17 58
-37z m280 22 c0 -15 -39 -65 -44 -57 -4 6 -2 13 3 16 5 3 7 15 4 26 -4 15 0
20 16 20 11 0 21 -2 21 -5z m-63 -90 c0 -8 -4 -15 -9 -15 -10 0 -11 14 -1 23
9 10 10 9 10 -8z m-306 -30 c47 -17 89 -51 89 -72 0 -19 -10 -16 -52 12 -20
14 -41 25 -47 25 -5 0 -12 6 -14 13 -3 6 -6 2 -6 -10 -1 -13 7 -24 19 -28 15
-5 20 -15 20 -39 0 -19 7 -39 15 -46 14 -11 14 -15 0 -36 -8 -13 -12 -30 -9
-39 4 -8 -2 -27 -11 -41 l-17 -26 -18 27 c-10 15 -16 34 -13 41 2 7 -5 26 -17
42 -19 26 -20 33 -9 53 7 13 12 32 10 42 -1 10 3 25 9 33 7 7 10 25 8 39 -3
14 -4 25 -3 25 1 0 22 -7 46 -15z m419 -3 c0 -5 -9 -17 -20 -27 -13 -12 -20
-14 -20 -6 0 7 -13 1 -31 -13 -31 -26 -75 -43 -86 -33 -6 7 61 68 86 79 23 10
71 9 71 0z m15 -62 c3 -10 0 -30 -6 -44 -10 -20 -10 -29 -1 -38 18 -18 14 -36
-12 -59 -14 -12 -22 -27 -20 -33 2 -6 -2 -20 -10 -31 -14 -19 -16 -19 -32 -3
-24 24 -28 126 -6 151 9 10 17 25 18 33 3 22 36 52 51 47 7 -3 15 -13 18 -23z
m-223 -9 c4 -3 10 -19 14 -35 5 -21 4 -27 -5 -22 -6 4 -11 3 -11 -1 0 -5 -12
-14 -27 -21 l-28 -12 27 4 c16 2 25 -1 21 -6 -7 -13 -65 -1 -75 15 -25 39 14
104 55 91 12 -3 25 -9 29 -13z m118 -16 c-7 -8 -20 -15 -29 -15 -11 1 -8 5 9
15 32 18 35 18 20 0z m-1240 -25 c0 -6 9 -23 20 -38 17 -23 18 -31 8 -58 -15
-40 -5 -72 17 -54 8 7 15 18 15 25 0 7 10 31 23 54 l24 41 26 -41 c15 -22 27
-44 27 -49 0 -4 10 -14 22 -22 14 -10 23 -27 25 -49 1 -19 5 -46 9 -62 l6 -27
-33 14 c-18 8 -35 20 -37 28 -3 7 -14 20 -25 30 -18 14 -19 20 -9 42 8 18 8
26 1 26 -7 0 -9 11 -7 25 3 13 1 22 -3 19 -5 -3 -9 -12 -9 -19 0 -8 -13 -30
-30 -48 -16 -19 -26 -38 -22 -42 4 -4 -3 -3 -14 3 -27 14 -34 32 -34 91 0 26
-7 56 -16 69 -9 13 -13 29 -10 37 6 17 26 20 26 5z m2229 -64 c0 -12 -3 -15
-6 -8 -7 18 -23 15 -23 -6 0 -10 -14 -40 -31 -67 -24 -37 -33 -45 -40 -34 -20
32 -9 77 29 122 34 41 38 43 55 29 9 -8 17 -25 16 -36z m-2300 35 c9 -6 10
-11 2 -15 -6 -4 -11 -21 -11 -38 0 -22 -6 -31 -20 -35 -15 -4 -19 -11 -15 -24
4 -13 1 -19 -9 -19 -13 0 -46 25 -46 36 0 19 32 74 51 88 27 18 29 19 48 7z
m2424 -53 c32 -38 13 -106 -35 -119 -34 -9 -47 7 -22 26 15 11 17 17 8 32 -8
13 -8 25 0 42 8 19 8 25 -2 29 -6 2 -12 8 -12 14 0 15 43 -1 63 -24z m-1759
-23 c30 -28 38 -98 11 -109 -18 -6 -20 5 -4 21 14 14 3 83 -13 83 -6 0 -7 -7
-3 -17 17 -41 1 -78 -42 -94 -13 -5 -23 -13 -23 -19 0 -12 31 -14 46 -2 5 4 2
-1 -7 -12 -16 -17 -19 -17 -51 -2 -19 9 -42 30 -52 47 -49 83 66 171 138 104z
m1100 -10 c57 -53 22 -155 -55 -155 -17 0 -32 6 -35 15 -3 8 -21 23 -40 34
-42 25 -45 57 -8 100 34 41 97 44 138 6z m-1708 -30 c3 -19 4 -40 2 -47 -3 -7
-9 11 -15 39 -5 29 -6 50 -2 47 5 -2 11 -20 15 -39z m1115 13 c5 -45 7 -58 13
-83 4 -16 15 -35 24 -43 12 -9 12 -11 2 -6 -8 3 3 -9 25 -27 39 -34 79 -70 61
-56 -15 11 -28 9 -20 -4 5 -8 1 -8 -14 0 -12 6 -24 16 -27 21 -4 6 -10 8 -15
5 -5 -3 -12 0 -16 6 -5 8 -3 9 7 4 8 -5 12 -6 9 -2 -3 3 -9 6 -15 8 -5 1 -20
15 -31 31 l-21 28 -27 -34 c-14 -19 -41 -45 -58 -57 -32 -21 -31 -20 8 22 62
68 74 90 20 36 -51 -50 -106 -85 -106 -67 0 5 4 10 8 10 5 0 28 17 52 37 43
38 90 120 90 161 0 23 29 32 31 10z m999 -78 c0 -17 4 -21 17 -16 14 6 14 3
-3 -15 -19 -22 -19 -22 3 -10 51 26 81 3 67 -53 -5 -22 -12 -26 -40 -26 -36 0
-46 -15 -16 -24 10 -3 6 -4 -8 -3 -23 2 -25 6 -24 49 0 30 -4 45 -10 40 -6 -3
-5 2 2 11 12 14 11 20 -7 43 -12 15 -21 35 -21 45 0 10 -4 21 -10 24 -5 3 -10
11 -10 16 0 5 14 -6 30 -24 17 -19 30 -45 30 -57z m-65 11 c-1 -42 -8 -56 -43
-98 -34 -39 -43 -45 -52 -33 -5 8 -7 22 -3 30 3 8 7 30 7 48 1 20 8 39 19 46
9 7 17 18 17 24 0 13 40 43 50 37 4 -2 6 -27 5 -54z m-1974 -38 c8 -10 9 -14
2 -10 -8 5 -10 -5 -7 -37 3 -25 1 -47 -5 -51 -7 -4 -8 1 -4 12 6 16 5 16 -10
4 -15 -12 -20 -11 -37 4 -38 35 -15 94 31 80 14 -5 19 -4 15 4 -11 17 0 13 15
-6z m649 -10 c29 -24 32 -31 27 -67 -7 -49 -36 -76 -83 -76 -44 0 -83 35 -91
82 -4 30 -1 41 20 62 35 35 85 35 127 -1z m870 -10 c29 -24 32 -30 27 -72 -5
-47 -26 -71 -61 -71 -17 0 -15 4 11 20 36 22 51 60 35 93 -10 21 -11 21 -11
-6 -1 -42 -17 -65 -51 -72 -16 -4 -30 -11 -30 -16 0 -20 -43 -4 -63 23 -23 30
-19 61 14 101 29 37 85 37 129 0z m-475 -50 c15 -34 12 -53 -6 -53 -23 0 -28
9 -22 43 6 31 17 35 28 10z m-535 -49 c0 -3 -5 -14 -10 -25 -16 -28 -30 -23
-17 6 11 22 27 34 27 19z m-323 -53 c35 -13 60 -27 57 -32 -3 -5 -10 -9 -16
-9 -18 0 -118 53 -118 63 0 5 3 7 8 5 4 -2 35 -14 69 -27z m343 25 c0 -3 -4
-8 -10 -11 -5 -3 -10 -1 -10 4 0 6 5 11 10 11 6 0 10 -2 10 -4z m400 -6 c-10
-6 -11 -10 -2 -10 25 0 11 -20 -15 -21 -16 -1 -39 -5 -53 -9 -15 -5 49 -8 154
-9 173 -1 221 5 120 15 -27 2 -71 8 -99 13 -48 8 -48 9 -12 10 21 0 36 5 33
10 -17 28 416 -8 559 -46 69 -18 104 -42 82 -55 -8 -4 -29 -3 -48 2 -19 6 -45
10 -59 9 -16 0 -8 -5 25 -15 95 -26 186 -57 190 -65 3 -4 -23 2 -58 13 -191
62 -467 98 -741 98 -375 0 -720 -57 -776 -128 -14 -17 -20 -20 -20 -9 0 32 50
60 158 87 23 6 42 12 42 14 0 2 -43 3 -96 2 l-96 -1 39 16 c21 8 67 23 103 32
58 14 113 22 340 47 102 11 248 11 230 0z m1020 -25 c0 -13 -87 -45 -120 -44
-30 0 -27 3 28 18 34 10 66 21 69 25 8 7 23 8 23 1z m-924 -78 c1 -9 -1 -15
-5 -12 -9 5 -95 -47 -105 -63 -3 -5 8 -21 25 -36 60 -54 35 -61 -248 -69 -146
-5 -203 -3 -203 5 0 7 -7 5 -17 -4 -22 -19 -61 -29 -68 -18 -3 5 4 11 15 15
11 3 20 11 20 17 0 6 7 5 17 -3 11 -10 14 -10 9 -1 -4 7 -1 12 9 12 9 0 13 5
10 10 -5 8 -11 7 -21 -1 -11 -9 -14 -6 -14 18 0 41 -31 69 -59 53 -18 -9 -21
-8 -21 10 0 11 8 23 18 26 9 3 26 10 37 14 25 11 186 39 245 43 25 2 114 3
199 3 139 -1 154 -3 157 -19z m304 13 c103 -13 153 -28 143 -43 -4 -7 0 -8 11
-4 10 4 27 1 39 -5 12 -7 25 -11 30 -10 4 1 7 -4 7 -10 0 -7 3 -24 6 -38 4
-20 2 -18 -10 7 -8 17 -23 36 -35 42 -27 15 -30 14 -24 -9 3 -12 -4 -27 -21
-43 -20 -19 -23 -26 -13 -36 10 -11 7 -12 -13 -6 -14 4 -31 15 -38 24 -10 12
-12 12 -6 1 5 -11 1 -10 -13 3 -16 14 -23 15 -29 6 -8 -13 41 -59 64 -59 7 0
11 -4 8 -9 -3 -4 15 -11 41 -15 33 -4 49 -2 55 6 5 9 8 7 8 -6 0 -18 -6 -18
-82 -12 -46 4 -101 9 -123 12 -22 2 -84 8 -137 13 -54 4 -105 14 -113 21 -14
12 -12 17 16 46 18 19 31 35 28 37 -2 1 -23 19 -46 40 -46 40 -48 36 22 50 39
9 141 7 225 -3z m-310 -46 c0 -9 -41 -44 -51 -44 -21 0 -16 21 8 34 31 17 43
19 43 10z m574 -35 c-3 -5 -10 -7 -15 -3 -5 3 -7 10 -3 15 3 5 10 7 15 3 5 -3
7 -10 3 -15z m-1234 0 c0 -11 -27 -12 -34 -1 -2 4 4 9 15 9 10 1 19 -2 19 -8z
m1350 -17 c0 -13 -12 -22 -22 -16 -10 6 -1 24 13 24 5 0 9 -4 9 -8z m-1272
-31 c5 -32 -23 -54 -49 -40 -11 5 -19 18 -19 27 0 45 62 56 68 13z m1216 -4
c10 -7 17 -22 15 -33 -5 -24 -51 -31 -69 -9 -11 13 -10 19 5 35 21 24 25 24
49 7z m-1359 -7 c3 -6 -1 -7 -9 -4 -18 7 -21 14 -7 14 6 0 13 -4 16 -10z
m1235 1 c0 -5 -7 -12 -16 -15 -14 -5 -15 -4 -4 9 14 17 20 19 20 6z m-1271
-32 c-22 -14 -33 -10 -19 6 7 8 17 12 22 9 6 -4 5 -10 -3 -15z m1521 16 c0 -2
-15 -12 -32 -20 l-33 -16 24 21 c22 19 41 26 41 15z m0 -35 c-20 -13 -33 -13
-25 0 3 6 14 10 23 10 15 0 15 -2 2 -10z m-1400 -10 c0 -5 -4 -10 -10 -10 -5
0 -10 5 -10 10 0 6 5 10 10 10 6 0 10 -4 10 -10z m525 -10 c-16 -4 -24 -8 -17
-9 7 0 11 -5 8 -10 -8 -13 -44 -18 -308 -46 -75 -8 -149 -17 -165 -20 -23 -4
-24 -4 -8 4 16 8 12 10 -22 10 -23 1 -44 5 -48 10 -5 9 66 34 132 47 89 17
493 31 428 14z m118 3 c-7 -2 -21 -2 -30 0 -10 3 -4 5 12 5 17 0 24 -2 18 -5z
m273 -7 c118 -7 386 -51 334 -55 -13 -1 -13 -2 0 -11 10 -6 -7 -8 -50 -3 -36
3 -78 6 -95 6 -16 0 -61 3 -100 8 -38 5 -102 11 -142 13 -55 4 -78 10 -94 25
-12 11 -27 18 -32 14 -6 -3 -7 -1 -3 5 4 7 24 10 49 7 23 -2 83 -7 133 -9z
m-1003 -131 c-3 -9 -8 -14 -10 -11 -3 3 -2 9 2 15 9 16 15 13 8 -4z m154 -65
c137 -24 235 -27 227 -7 -2 7 -17 19 -32 25 -23 10 -18 11 37 7 35 -3 88 -5
118 -5 30 0 52 -4 49 -9 -3 -4 5 -18 17 -30 27 -24 102 -27 111 -4 3 7 14 13
25 13 11 0 23 5 26 10 8 13 522 14 530 1 3 -5 -5 -12 -17 -14 -13 -3 9 -3 47
0 39 2 80 7 93 10 12 3 22 1 22 -5 0 -5 -51 -16 -112 -23 -148 -18 -824 -19
-988 -1 -205 23 -320 45 -320 62 0 6 10 6 25 0 14 -5 78 -19 142 -30z m1303
15 c-13 -14 -27 -25 -32 -25 -9 0 42 49 51 50 3 0 -6 -11 -19 -25z"/>
<path d="M2841 4513 c-1 -26 -30 -63 -48 -63 -7 0 -13 -4 -13 -10 0 -18 26
-11 49 14 16 17 21 32 18 52 -3 22 -4 24 -6 7z"/>
<path d="M2320 4365 c13 -14 26 -25 28 -25 3 0 -5 11 -18 25 -13 14 -26 25
-28 25 -3 0 5 -11 18 -25z"/>
<path d="M3110 4426 c0 -2 7 -7 16 -10 8 -3 12 -2 9 4 -6 10 -25 14 -25 6z"/>
<path d="M1860 4373 c0 -26 -6 -36 -32 -49 -19 -10 -27 -19 -20 -22 18 -6 59
23 67 48 3 11 2 28 -4 37 -9 15 -10 13 -11 -14z"/>
<path d="M1638 4203 c7 -3 16 -2 19 1 4 3 -2 6 -13 5 -11 0 -14 -3 -6 -6z"/>
<path d="M2205 4190 c-3 -6 1 -7 9 -4 18 7 21 14 7 14 -6 0 -13 -4 -16 -10z"/>
<path d="M1672 4134 c-7 -8 -8 -14 -3 -14 10 0 25 19 20 25 -2 1 -10 -3 -17
-11z"/>
<path d="M1838 4122 c-15 -9 -29 -25 -32 -35 -4 -17 -11 -19 -42 -14 -21 4
-40 11 -44 17 -5 8 -10 6 -14 -6 -9 -23 5 -35 52 -44 44 -8 108 9 105 28 -2 7
3 11 9 10 17 -4 22 36 6 50 -10 8 -20 6 -40 -6z m8 -40 c-15 -15 -15 -15 -4
10 7 15 15 23 17 17 2 -6 -4 -18 -13 -27z m-102 -31 c-2 -3 -12 3 -22 13 -16
17 -16 18 5 5 12 -7 20 -15 17 -18z"/>
<path d="M1706 4122 c-3 -5 1 -9 9 -9 8 0 12 4 9 9 -3 4 -7 8 -9 8 -2 0 -6 -4
-9 -8z"/>
<path d="M2520 4160 c-13 -8 -12 -10 3 -10 9 0 17 5 17 10 0 12 -1 12 -20 0z"/>
<path d="M2653 4133 c9 -2 23 -2 30 0 6 3 -1 5 -18 5 -16 0 -22 -2 -12 -5z"/>
<path d="M2470 4125 c0 -5 5 -17 10 -25 5 -8 10 -10 10 -5 0 6 -5 17 -10 25
-5 8 -10 11 -10 5z"/>
<path d="M2599 4113 c-13 -16 -12 -17 4 -4 16 13 21 21 13 21 -2 0 -10 -8 -17
-17z"/>
<path d="M2460 4070 c-9 -6 -10 -10 -3 -10 6 0 15 5 18 10 8 12 4 12 -15 0z"/>
<path d="M2908 4357 c4 -36 -21 -67 -57 -70 -23 -1 -27 -12 -10 -22 46 -29
118 78 76 113 -10 9 -12 4 -9 -21z"/>
<path d="M3720 4082 c0 -9 -16 -39 -35 -66 -19 -27 -39 -63 -45 -80 -13 -40
-16 -162 -7 -246 6 -51 5 -69 -7 -85 -17 -22 -19 -16 -16 42 3 57 -73 71 -86
16 -9 -32 5 -56 37 -63 21 -5 24 -12 27 -56 3 -43 -1 -55 -30 -93 -18 -23 -43
-56 -54 -72 -21 -27 -44 -121 -65 -264 -13 -85 -14 -86 -39 -30 -27 61 -28 99
-7 190 24 100 22 195 -5 277 -20 60 -38 87 -38 58 0 -5 -13 -38 -29 -72 -15
-35 -32 -79 -36 -98 -4 -19 -12 -40 -17 -47 -16 -20 11 -159 38 -196 13 -18
30 -45 39 -60 l16 -28 -25 17 c-14 9 -26 20 -26 24 0 10 -88 60 -104 60 -7 0
-24 6 -39 13 l-27 12 0 162 0 162 -207 3 c-115 2 -516 3 -893 3 l-685 0 -2
-470 c-2 -258 -3 -553 -3 -655 l-1 -185 -20 24 c-12 15 -17 31 -13 44 4 14 -2
26 -22 42 -25 20 -27 25 -14 40 12 15 12 19 -3 30 -9 7 -28 10 -42 7 -20 -3
-27 1 -35 23 -10 26 -13 27 -52 21 -24 -4 -50 -13 -59 -21 -25 -24 -39 -18
-39 18 0 51 30 90 82 105 40 12 46 18 62 61 9 26 14 55 10 64 -8 22 -47 22
-65 1 -7 -9 -23 -20 -36 -25 -17 -6 -24 -19 -29 -49 -4 -22 -10 -43 -14 -45
-10 -6 -52 92 -48 113 2 10 21 23 43 30 54 18 62 28 40 52 -17 19 -17 20 9 30
15 5 38 13 52 16 20 5 24 11 20 29 -4 17 0 25 19 33 28 13 31 29 11 57 -10 14
-11 25 -4 41 15 32 3 58 -22 51 -14 -4 -25 2 -36 18 -13 20 -23 23 -70 22 -53
-1 -56 -3 -72 -36 l-17 -36 -9 45 c-19 91 -14 120 27 152 32 26 37 35 37 73 0
27 -6 50 -16 60 -15 15 -18 15 -36 -2 -11 -10 -29 -31 -41 -47 -18 -25 -19
-33 -8 -62 7 -20 9 -40 4 -49 -8 -13 -12 -12 -32 9 -28 30 -24 59 14 104 30
35 31 47 7 62 -13 8 -14 12 -4 17 7 3 25 16 40 29 24 22 25 25 11 37 -15 12
-15 14 2 36 24 29 24 59 2 69 -10 4 -18 13 -19 20 -1 6 -2 19 -2 27 -2 17 -37
21 -47 5 -4 -6 -13 -5 -24 2 -31 19 -51 3 -51 -42 0 -38 -1 -39 -21 -28 -17
11 -22 10 -35 -7 -10 -13 -13 -31 -9 -52 5 -26 2 -33 -9 -33 -23 0 -48 56 -41
91 6 25 11 29 39 29 41 0 58 14 80 67 31 71 3 93 -71 53 -42 -23 -53 -36 -53
-70 0 -14 -7 -33 -15 -44 -13 -18 -14 -17 -21 9 -11 43 12 97 61 145 48 47 57
79 25 87 -19 5 -19 6 2 34 17 22 19 31 9 42 -6 8 -8 22 -5 31 4 10 2 27 -4 39
-5 12 -13 30 -16 40 -6 20 -42 23 -53 3 -4 -8 -17 -15 -28 -18 -11 -2 -27 -17
-35 -33 l-15 -30 -3 35 c-4 42 -19 62 -43 58 -10 -2 -24 6 -32 16 -19 26 -47
14 -47 -19 0 -18 -5 -25 -20 -25 -22 0 -26 -20 -9 -53 9 -18 9 -20 -2 -9 -32
30 -99 3 -85 -34 4 -10 -1 -25 -10 -36 -16 -17 -16 -20 5 -42 16 -17 21 -31
16 -45 -7 -25 42 -81 71 -81 16 0 16 -1 0 -19 -15 -17 -15 -20 -2 -34 9 -8 44
-18 78 -22 87 -10 94 -14 121 -65 20 -38 22 -48 11 -58 -11 -10 -14 -10 -14 1
0 19 -36 50 -52 44 -7 -2 -21 0 -31 5 -11 5 -29 7 -42 4 -21 -5 -24 -12 -23
-49 1 -32 8 -47 27 -64 21 -18 23 -24 13 -31 -26 -17 -8 -46 36 -62 30 -10 41
-19 37 -30 -9 -30 20 -47 120 -70 76 -17 152 -67 175 -115 24 -49 25 -112 4
-140 -15 -19 -16 -19 -9 12 5 24 2 36 -14 52 -12 12 -17 27 -14 39 6 26 -15
65 -32 58 -7 -2 -21 4 -31 15 -21 24 -43 24 -51 2 -3 -10 -15 -26 -27 -35 -20
-17 -21 -18 -4 -48 26 -46 22 -59 -7 -27 -28 29 -40 33 -51 16 -3 -6 -17 -8
-31 -4 -36 9 -55 -10 -41 -41 9 -20 9 -27 -1 -33 -20 -12 -5 -44 29 -64 20
-12 30 -26 30 -43 0 -17 8 -28 27 -36 16 -7 36 -20 46 -30 11 -11 33 -18 58
-18 57 0 93 -22 106 -64 10 -31 9 -36 -6 -36 -9 0 -22 13 -28 30 -12 32 -44
52 -51 32 -3 -9 -9 -8 -25 3 -24 17 -47 4 -47 -25 0 -10 -7 -20 -15 -24 -23
-8 -18 -37 12 -68 25 -26 26 -29 9 -41 -25 -18 -17 -48 20 -72 25 -16 31 -26
30 -55 l-1 -35 55 -7 c114 -14 115 -15 124 -157 l6 -84 -23 20 c-12 12 -48 37
-80 58 -58 36 -87 78 -87 123 0 25 -33 54 -53 46 -11 -4 -19 0 -23 12 -17 57
-35 84 -54 84 -11 0 -20 -5 -20 -12 0 -6 -10 -2 -23 10 -24 23 -67 30 -67 11
0 -6 -14 -9 -32 -7 l-33 3 -1 -53 c-1 -45 2 -55 18 -61 18 -6 18 -8 4 -20 -22
-18 -20 -41 3 -41 32 0 50 -11 44 -26 -3 -9 -20 -14 -43 -14 -46 0 -70 -22
-52 -50 10 -17 8 -19 -21 -22 -23 -2 -32 -8 -31 -20 1 -10 -4 -18 -11 -18 -7
0 -23 -8 -36 -19 -20 -16 -21 -21 -10 -35 12 -14 11 -19 -2 -34 -27 -30 -26
-72 2 -72 10 0 21 -7 25 -15 9 -25 52 -18 76 13 14 18 23 23 26 15 9 -21 30
-15 42 13 12 25 32 25 32 0 0 -8 7 -19 14 -26 11 -9 13 -18 5 -37 -15 -39 -4
-57 30 -50 20 4 31 2 35 -8 3 -8 14 -15 25 -15 22 0 51 54 51 94 0 14 5 26 10
26 6 0 10 -9 10 -20 0 -14 7 -20 24 -20 27 0 36 16 36 68 1 35 2 36 15 18 22
-29 38 -7 45 57 4 43 9 53 26 55 31 4 104 -78 104 -118 l0 -31 -30 16 c-43 22
-54 19 -99 -24 -64 -61 -56 -84 27 -74 39 4 53 11 63 29 30 57 46 5 26 -84 -9
-37 -23 -102 -33 -144 -9 -43 -20 -75 -24 -73 -4 3 -10 22 -14 44 -6 42 -21
54 -48 39 -14 -6 -21 -2 -33 22 -17 33 -32 37 -60 16 -13 -9 -25 -11 -36 -5
-11 5 -27 3 -47 -6 -25 -13 -29 -21 -29 -55 0 -22 4 -43 9 -46 5 -3 3 -12 -4
-21 -16 -20 9 -39 70 -55 45 -11 49 -17 31 -50 -16 -29 14 -53 76 -62 48 -8
62 -26 20 -26 -41 0 -90 25 -114 59 -30 42 -69 41 -62 -1 2 -16 -19 -7 -42 16
-49 49 -87 56 -87 15 0 -25 -14 -24 -57 2 -27 17 -36 19 -48 9 -8 -7 -15 -21
-15 -31 0 -27 -15 -31 -35 -9 -21 23 -47 25 -74 8 -15 -9 -25 -9 -46 0 -37 17
-55 15 -55 -7 0 -15 -8 -21 -32 -23 -24 -2 -32 -7 -30 -20 1 -9 -6 -19 -17
-23 -28 -8 -36 -42 -17 -64 9 -10 16 -23 16 -29 0 -17 20 -25 34 -13 10 8 17
7 26 -4 7 -8 16 -13 20 -10 4 3 10 -2 14 -10 3 -10 -1 -15 -14 -15 -23 0 -53
-28 -47 -44 3 -6 8 -18 11 -27 5 -10 -1 -19 -18 -27 -35 -16 -44 -51 -18 -73
14 -11 19 -23 15 -39 -12 -44 44 -54 83 -15 21 21 29 24 40 14 12 -10 19 -8
38 10 l23 21 -1 -22 c-1 -20 4 -23 39 -23 34 0 42 4 53 28 11 22 16 25 32 17
26 -14 50 12 50 57 0 29 3 33 14 24 18 -15 31 2 40 50 5 29 16 42 55 67 27 18
52 32 55 32 13 0 5 -33 -16 -61 -23 -30 -23 -31 -3 -45 21 -16 20 -19 -31 -50
-21 -12 -12 -64 12 -64 9 0 14 -8 13 -18 -3 -37 1 -40 62 -39 66 0 79 11 79
63 0 22 3 25 12 16 36 -36 70 15 48 72 -13 36 -13 36 11 36 20 0 21 3 14 48
-8 46 -9 82 -3 86 2 2 24 1 49 -2 43 -4 48 -7 64 -43 10 -22 16 -40 14 -42 -2
-1 -25 -12 -50 -24 -37 -17 -47 -28 -53 -53 -17 -87 3 -108 62 -64 49 37 53
44 48 77 -5 22 -2 27 15 27 26 0 108 -42 92 -47 -7 -3 -13 -11 -13 -18 0 -8
-13 -15 -32 -17 -28 -2 -32 -7 -30 -25 3 -21 -1 -23 -46 -23 -66 0 -85 -20
-52 -55 24 -25 22 -28 -16 -26 -32 3 -69 -32 -59 -55 4 -10 7 -25 6 -31 -1 -7
3 -13 9 -13 6 0 8 -5 4 -11 -4 -8 -9 -7 -15 2 -6 10 -10 9 -15 -5 -8 -21 18
-46 48 -46 10 0 18 -7 18 -15 0 -8 12 -18 27 -21 22 -6 32 -1 62 34 33 38 38
40 55 27 24 -18 43 -5 63 43 11 26 17 31 27 23 15 -13 36 4 36 30 0 23 5 25
72 33 49 6 58 5 58 -8 0 -17 -8 -19 -51 -16 -18 1 -38 -12 -69 -41 l-43 -42
23 -19 c32 -26 97 -16 125 18 25 29 46 31 68 6 16 -17 15 -20 -22 -40 -41 -23
-104 -28 -157 -13 -47 13 -98 0 -102 -27 -3 -17 -10 -22 -33 -22 -27 0 -33 -8
-30 -36 1 -7 -15 -9 -48 -6 -43 4 -51 2 -61 -18 -10 -18 -8 -25 10 -45 l21
-23 -28 -7 c-15 -3 -34 -11 -40 -17 -16 -13 -17 -54 -3 -63 8 -5 7 -11 0 -20
-6 -8 -10 -24 -8 -37 3 -20 8 -23 42 -20 l39 3 -7 -40 c-5 -36 -3 -42 23 -60
36 -26 53 -26 75 -2 10 11 25 17 36 14 28 -8 59 14 68 50 5 17 15 31 22 29 21
-5 37 17 44 58 4 24 12 40 20 40 19 0 26 22 26 84 0 92 13 112 95 151 76 36
98 37 116 3 10 -19 9 -20 -24 -14 -51 10 -69 -1 -65 -38 2 -24 -1 -31 -17 -34
-26 -5 -56 -32 -49 -44 4 -5 -2 -28 -12 -50 -17 -38 -17 -41 -1 -53 9 -7 17
-20 17 -29 0 -22 27 -31 46 -15 13 10 17 10 24 -1 12 -19 37 3 45 40 6 27 8
28 32 17 21 -9 27 -8 39 8 8 10 14 31 14 46 0 20 6 28 21 31 14 2 25 16 34 41
7 21 15 41 18 43 4 5 87 -33 87 -39 0 -1 -12 -33 -25 -72 -14 -38 -25 -78 -25
-87 0 -17 -112 -78 -143 -78 -8 0 -25 -8 -38 -19 -13 -10 -42 -28 -64 -39 -85
-45 -109 -87 -42 -76 44 8 159 44 177 55 8 5 44 23 79 40 l64 31 21 -25 c38
-45 130 -61 185 -33 15 8 47 40 71 70 47 62 73 76 35 20 -20 -30 -25 -49 -25
-102 0 -58 3 -69 27 -94 l27 -28 -25 -26 c-13 -15 -55 -42 -94 -60 -99 -46
-141 -74 -169 -113 -14 -19 -25 -36 -23 -37 2 -2 31 6 66 16 78 25 89 25 67 1
-14 -16 -45 -107 -46 -134 0 -15 251 215 265 243 9 17 16 64 17 115 3 84 2 87
-25 111 -32 28 -29 39 34 114 45 53 89 82 108 71 12 -8 59 -6 104 4 32 6 97
-120 97 -188 0 -17 -9 -40 -21 -53 -19 -21 -20 -27 -10 -89 15 -101 32 -123
136 -175 75 -37 97 -54 130 -99 37 -50 40 -52 49 -31 7 16 4 34 -13 73 -39 87
-38 98 12 128 24 14 54 40 66 58 21 28 21 31 4 31 -10 0 -42 -9 -71 -20 -78
-30 -176 -24 -227 14 -18 13 -18 16 17 67 33 49 36 58 29 94 -4 22 -17 56 -29
75 -12 19 -22 38 -22 42 0 4 28 -9 63 -29 97 -56 108 -60 169 -68 49 -5 59 -4
77 14 12 12 21 28 21 36 0 24 18 18 134 -40 60 -31 111 -54 113 -51 3 3 -12
32 -32 65 -35 57 -41 61 -104 82 -36 12 -68 23 -70 25 -2 1 6 16 18 32 21 30
21 85 0 98 -20 12 5 24 51 24 47 0 50 -2 91 -54 44 -56 100 -89 203 -120 l48
-15 -6 30 c-11 56 -58 140 -88 159 -46 28 -140 45 -168 30 -14 -7 -26 -8 -32
-2 -6 6 11 18 44 33 66 29 180 33 220 7 32 -21 79 -118 114 -233 22 -74 33
-96 65 -126 21 -19 51 -41 66 -49 15 -8 45 -30 66 -49 l38 -36 -3 95 c-3 80
-1 94 12 92 8 -2 45 -4 82 -5 65 -1 93 7 73 21 -6 4 -25 25 -43 47 -67 80
-127 149 -151 171 -38 38 -109 66 -170 70 -32 2 -68 7 -82 12 l-23 9 22 12
c24 13 30 59 10 79 -17 17 -53 15 -68 -3 -7 -8 -22 -15 -33 -15 -19 0 -20 1
-2 20 10 11 32 20 49 21 17 0 40 4 51 8 14 6 32 -1 66 -26 70 -50 121 -64 219
-62 47 1 113 2 148 3 34 0 62 4 62 7 0 19 -78 90 -122 112 -65 31 -111 40
-207 38 l-74 -2 39 48 c22 26 55 69 74 95 37 50 65 61 75 29 10 -34 32 -45 61
-32 20 9 25 17 22 38 -4 33 -43 57 -69 42 -11 -6 -20 -5 -24 1 -9 15 72 63
105 62 40 -1 47 -7 55 -43 4 -17 13 -42 21 -57 8 -15 14 -33 14 -40 0 -7 21
-36 47 -63 59 -63 151 -114 138 -77 -2 7 -6 43 -9 80 -3 37 -12 81 -21 97 -8
17 -15 32 -15 34 0 2 20 4 45 5 34 0 45 -4 45 -15 0 -29 71 -150 101 -172 16
-12 50 -31 75 -42 40 -16 45 -17 40 -3 -3 9 -8 41 -11 72 -6 55 -5 56 11 35 9
-13 21 -23 26 -23 5 0 24 -11 41 -24 32 -24 130 -66 156 -66 16 0 14 9 -33
120 -20 46 -36 86 -36 87 0 2 12 3 28 4 15 0 36 4 46 8 18 7 18 8 -4 29 -13
12 -32 24 -42 28 -28 8 -22 18 32 53 28 18 50 36 50 41 0 5 -29 18 -65 30 -80
27 -198 29 -225 5 -17 -15 -23 -15 -79 1 -74 20 -185 15 -246 -11 -69 -30 -79
-34 -134 -45 -77 -15 -128 -40 -195 -95 l-59 -48 33 41 c23 30 57 53 119 83
137 66 151 73 151 81 0 3 9 9 20 13 32 10 92 81 116 137 35 80 34 82 -37 74
-69 -7 -176 -56 -171 -77 2 -8 1 -11 -3 -7 -4 4 -18 3 -31 -2 l-24 -10 15 38
c32 75 34 77 140 90 114 14 146 28 234 99 36 29 72 53 80 53 33 0 -14 30 -65
41 -63 14 -115 2 -220 -51 l-59 -29 39 35 c68 59 115 81 193 88 39 3 83 10 96
15 13 5 39 12 58 15 19 3 69 18 113 34 l78 29 -38 31 c-21 18 -43 32 -49 32
-5 0 -16 4 -23 9 -11 7 -10 17 8 51 25 48 41 200 22 200 -6 0 -12 -4 -14 -9
-1 -4 -49 -44 -104 -89 -104 -82 -145 -135 -175 -227 -12 -39 -42 -75 -60 -75
-15 0 -10 40 7 57 42 43 -21 109 -66 68 -25 -23 -25 -40 0 -65 11 -11 20 -27
20 -35 0 -27 -22 -62 -49 -78 l-27 -16 1 60 c0 33 -5 63 -10 67 -6 4 -21 20
-33 36 l-22 28 -8 -23 c-55 -149 -64 -184 -66 -267 -3 -81 -25 -167 -55 -219
-13 -23 -14 -16 0 27 37 121 51 230 29 230 -6 0 -23 -8 -38 -17 -25 -16 -25
-14 6 18 35 39 72 122 79 182 l5 38 -67 -45 c-36 -25 -69 -46 -72 -46 -3 0
-26 -16 -50 -36 -24 -20 -45 -35 -47 -33 -9 11 -14 55 -8 64 20 29 40 36 66
24 54 -25 106 31 65 72 -25 25 -43 24 -71 -4 -13 -13 -31 -29 -40 -36 -15 -11
-18 -11 -18 2 0 9 21 32 48 53 47 36 47 36 122 30 110 -9 192 6 251 46 50 34
58 44 37 46 -7 0 -48 7 -91 15 -53 10 -89 12 -110 6 -17 -5 -33 -7 -35 -4 -6
6 45 25 67 25 53 0 176 83 228 154 l44 61 -46 3 -46 3 6 47 c9 83 2 88 -66 40
-122 -87 -163 -138 -175 -219 -3 -24 -10 -55 -15 -69 -10 -25 -95 -93 -154
-123 -17 -8 -43 -27 -58 -42 l-27 -28 0 34 c0 52 11 79 30 79 22 0 108 45 139
73 23 21 101 173 101 197 0 6 -11 3 -26 -9 -15 -12 -34 -21 -44 -21 -15 0 -16
5 -7 40 6 22 8 42 5 46 -4 3 -45 -21 -92 -55 -48 -34 -88 -61 -91 -61 -3 0 -5
22 -5 48 0 40 5 53 28 74 24 22 36 25 112 27 130 2 184 22 253 91 31 32 57 60
57 62 0 2 -65 3 -145 1 l-146 -4 6 24 c7 26 -16 57 -42 57 -8 0 -27 -13 -41
-30 -36 -41 -46 -38 -38 12 12 76 41 86 116 41 43 -26 51 -27 192 -28 164 -1
158 -6 89 71 -31 34 -32 36 -12 41 12 3 21 9 21 14 0 5 5 9 11 9 6 0 36 17 66
37 l56 37 -29 8 c-16 5 -51 12 -77 16 l-49 7 35 45 c36 48 61 90 55 95 -6 6
-214 -52 -262 -74 -55 -24 -60 -25 -51 -11 12 19 -15 50 -43 50 -34 0 -52 -16
-52 -46 0 -14 -8 -24 -21 -27 -17 -5 -20 -2 -16 16 3 12 9 38 12 58 6 31 14
40 48 55 59 27 133 106 166 177 28 62 53 148 45 156 -2 2 -14 -5 -27 -17 -24
-23 -84 -48 -93 -39 -10 10 29 78 53 94 13 9 33 13 45 10 39 -11 111 12 147
46 27 26 101 158 101 181 0 4 -10 0 -22 -8 -13 -7 -47 -22 -77 -31 -54 -18
-107 -62 -175 -149 -16 -20 -31 -35 -33 -32 -6 6 14 44 47 86 34 45 68 142 71
201 2 27 -8 81 -22 128 -23 76 -39 103 -39 63z m20 -68 c0 -9 -5 -12 -12 -8
-8 5 -9 0 -5 -16 6 -24 -32 -229 -56 -295 l-14 -40 -8 67 c-8 76 1 201 17 232
35 69 78 102 78 60z m-3207 -44 c-15 -26 -15 -29 5 -55 12 -15 22 -33 22 -40
0 -7 6 -18 13 -24 11 -8 17 -3 30 24 11 23 24 35 37 35 11 0 20 -4 20 -10 0
-5 -6 -7 -12 -5 -7 3 -21 -7 -30 -22 -10 -16 -23 -36 -30 -45 -9 -13 -9 -22 2
-45 8 -15 16 -31 18 -36 2 -4 -5 -4 -15 -1 -13 5 -11 1 5 -11 16 -12 22 -24
18 -38 -3 -12 0 -27 7 -35 7 -10 -4 -7 -30 7 -23 11 -49 21 -57 21 -14 0 -46
36 -46 52 0 5 9 8 19 8 36 0 34 22 -8 64 -44 45 -59 96 -21 76 24 -13 26 3 5
40 -19 34 -18 40 5 40 14 0 20 7 20 23 0 32 12 42 27 21 10 -14 9 -22 -4 -44z
m67 24 c0 -9 -32 -33 -44 -34 -5 0 -1 9 9 20 18 20 35 26 35 14z m-183 -121
c1 -19 -1 -22 -8 -12 -11 17 -12 39 -1 39 4 0 8 -12 9 -27z m3 -81 c0 -3 -9 3
-20 13 -11 10 -20 23 -20 28 0 6 9 0 20 -13 11 -13 20 -25 20 -28z m245 9 c3
-5 1 -12 -5 -16 -5 -3 -10 1 -10 9 0 18 6 21 15 7z m3269 -25 c-3 -8 -12 -12
-20 -9 -8 3 -20 0 -28 -6 -7 -6 -15 -8 -19 -5 -3 3 -8 -4 -12 -16 -7 -21 -98
-100 -116 -100 -16 0 19 56 55 87 31 28 65 44 121 56 11 3 21 5 22 6 1 0 0 -5
-3 -13z m-3505 -36 c1 9 7 5 14 -10 8 -14 12 -27 10 -29 -6 -9 -43 33 -42 48
0 12 3 11 9 -4 6 -13 9 -15 9 -5z m421 -69 c0 -21 -39 -73 -40 -53 0 7 -4 11
-9 7 -9 -5 -31 24 -31 40 0 8 40 24 63 24 10 1 17 -6 17 -18z m2710 -1 c0 -5
-2 -10 -4 -10 -3 0 -8 5 -11 10 -3 6 -1 10 4 10 6 0 11 -4 11 -10z m-2801 -52
c-11 -20 -29 -24 -29 -7 0 6 5 20 11 31 9 16 13 18 19 7 5 -7 4 -21 -1 -31z
m120 -40 c-1 -44 -14 -93 -25 -95 -11 -2 -9 69 1 105 7 21 25 13 24 -10z m45
-20 c-14 -26 -19 -29 -22 -15 -2 10 4 27 14 38 25 27 28 17 8 -23z m2417 -120
c-6 -62 -13 -129 -15 -148 -1 -19 -4 -6 -5 30 -2 44 -5 57 -10 41 -4 -14 -13
-27 -20 -29 -10 -3 -12 5 -8 34 8 54 17 75 30 67 7 -4 8 0 3 12 -7 18 23 119
33 110 2 -3 -1 -56 -8 -117z m-1401 -308 l0 -410 -280 0 -280 0 0 410 0 410
280 0 280 0 0 -410z m1177 313 c-4 -54 -7 -239 -7 -410 l0 -313 -280 0 -280 0
0 410 0 410 287 0 286 0 -6 -97z m-2127 77 c0 -5 -2 -10 -4 -10 -3 0 -8 5 -11
10 -3 6 -1 10 4 10 6 0 11 -4 11 -10z m-424 -32 c19 -37 74 -89 86 -82 4 3 8
-7 8 -21 0 -14 11 -37 24 -50 13 -13 31 -38 40 -56 l16 -31 -38 7 c-20 4 -45
11 -56 17 -19 10 -19 11 -1 24 10 8 17 15 14 18 -13 11 -50 26 -67 26 -11 0
-25 7 -32 15 -11 13 -10 18 6 30 18 14 18 16 -14 43 -26 22 -30 30 -20 40 9 9
9 15 0 24 -16 16 -15 28 3 28 8 0 22 -14 31 -32z m249 10 c9 -29 12 -39 14
-58 1 -12 3 -13 10 -1 18 28 30 6 14 -27 -13 -26 -18 -30 -30 -20 -8 6 -23 12
-33 13 -18 2 -18 0 -2 -29 9 -17 21 -34 25 -37 4 -3 6 -26 5 -50 -2 -31 1 -43
10 -41 6 1 12 -5 12 -13 0 -23 -28 -6 -45 28 -8 16 -15 42 -15 56 -1 14 -7 37
-15 51 -22 38 -19 53 9 46 24 -6 24 -5 19 49 -6 56 8 76 22 33z m2889 -10
c-16 -18 -37 -39 -47 -46 -10 -8 -30 -25 -44 -38 -31 -29 -43 -32 -18 -4 26
29 3 25 -24 -4 -13 -14 -20 -29 -16 -36 3 -6 1 -9 -6 -8 -7 2 -25 -19 -41 -47
-32 -58 -33 -57 -12 14 20 68 80 134 142 157 26 10 56 24 67 31 31 21 31 15
-1 -19z m-2874 -122 c0 -3 -4 -8 -10 -11 -5 -3 -10 -1 -10 4 0 6 5 11 10 11 6
0 10 -2 10 -4z m70 -6 c0 -5 -5 -10 -11 -10 -5 0 -7 5 -4 10 3 6 8 10 11 10 2
0 4 -4 4 -10z m124 -42 c9 -36 8 -38 -31 -38 -28 0 -34 -3 -23 -10 13 -8 13
-11 -2 -27 -17 -16 -18 -16 -18 7 0 31 35 90 54 90 7 0 16 -10 20 -22z m2210
-201 c67 -80 79 -101 51 -90 -9 3 -15 2 -14 -3 3 -20 -2 -24 -16 -12 -42 34
-56 55 -75 111 -19 57 -25 86 -16 76 2 -2 33 -39 70 -82z m-18 -94 c19 -24 47
-43 76 -53 78 -27 108 -67 108 -142 -1 -42 -1 -43 -15 -18 -7 14 -12 34 -9 46
7 27 -17 46 -52 42 -59 -7 -57 -64 4 -83 23 -7 35 -18 43 -42 12 -38 3 -136
-12 -127 -5 3 -9 11 -8 17 2 7 -3 32 -10 55 -9 32 -30 61 -77 107 -35 36 -78
72 -94 82 l-30 17 1 136 0 135 23 -67 c12 -37 36 -85 52 -105z m662 141 c-3
-3 -41 -23 -83 -45 -55 -28 -75 -34 -71 -23 5 12 2 15 -10 10 -9 -3 -28 -9
-42 -12 -26 -6 -26 -6 -7 8 36 27 235 85 213 62z m-3093 -64 c-5 -21 -3 -30 6
-30 10 0 10 -3 1 -12 -8 -8 -15 -8 -27 2 -16 14 -21 55 -5 45 6 -3 13 1 16 9
10 27 16 18 9 -14z m2770 20 c-3 -5 -11 -10 -16 -10 -6 0 -7 5 -4 10 3 6 11
10 16 10 6 0 7 -4 4 -10z m-5 -60 c18 0 18 -2 -3 -48 -22 -48 -87 -132 -101
-132 -4 0 -5 12 -2 28 2 15 8 49 11 75 7 52 37 92 62 83 8 -3 23 -6 33 -6z
m-2735 -67 c-6 -24 -7 -24 -19 -8 -9 13 -15 15 -20 6 -4 -6 -2 -20 6 -29 12
-15 11 -16 -4 -3 -19 14 -25 51 -8 51 6 0 10 6 10 14 0 19 34 26 38 8 2 -7 1
-25 -3 -39z m295 37 c0 -5 -3 -10 -8 -10 -7 0 -21 -29 -36 -74 -4 -12 -13 -17
-27 -13 -15 4 -23 -1 -31 -21 -6 -15 -16 -39 -24 -54 -8 -14 -14 -34 -15 -45
0 -10 -3 -13 -6 -5 -7 19 -23 4 -23 -23 0 -13 -4 -26 -10 -30 -5 -3 -8 21 -7
62 2 61 4 68 22 68 15 0 23 11 34 48 8 26 17 47 21 47 3 0 16 -9 29 -21 13
-13 21 -16 20 -8 -2 8 8 31 21 51 25 37 40 48 40 28z m30 -19 c0 -6 -4 -13
-10 -16 -5 -3 -10 1 -10 9 0 9 5 16 10 16 6 0 10 -4 10 -9z m2267 -53 c-2 -13
-4 -5 -4 17 -1 22 1 32 4 23 2 -10 2 -28 0 -40z m-2721 12 c18 -7 24 -14 17
-18 -15 -10 -5 -52 12 -52 8 0 10 -9 7 -26 -3 -17 -9 -23 -19 -20 -8 3 -17 6
-19 6 -2 0 -2 11 2 24 4 18 1 26 -13 30 -11 4 -30 16 -43 28 -21 20 -22 22 -5
34 10 7 21 11 25 9 4 -2 20 -9 36 -15z m2679 -10 c10 -11 16 -20 13 -20 -3 0
-13 9 -23 20 -10 11 -16 20 -13 20 3 0 13 -9 23 -20z m-2264 -33 c-10 -9 -11
-8 -5 6 3 10 9 15 12 12 3 -3 0 -11 -7 -18z m-261 -26 c14 -27 13 -31 -11 -31
-15 0 -19 -4 -15 -16 5 -14 4 -15 -9 -4 -19 16 -19 36 1 44 8 3 12 10 9 16 -3
5 -2 10 4 10 6 0 15 -9 21 -19z m214 -16 c-5 -11 -2 -14 12 -9 11 4 16 4 12 0
-3 -4 -18 -9 -32 -10 -25 -3 -26 -2 -10 15 21 23 25 24 18 4z m2172 -120 c53
-59 99 -123 92 -130 -3 -3 -18 13 -33 35 -15 22 -29 39 -31 38 -7 -8 10 -57
19 -51 6 3 7 1 3 -6 -4 -6 -12 -9 -17 -6 -5 4 -9 -1 -9 -11 0 -13 -3 -14 -15
-4 -8 7 -15 17 -15 23 0 6 -6 18 -14 26 -33 37 -66 120 -66 167 l0 49 20 -40
c11 -22 40 -62 66 -90z m104 115 c0 -5 -5 -10 -11 -10 -5 0 -7 5 -4 10 3 6 8
10 11 10 2 0 4 -4 4 -10z m251 -9 c-8 -5 -20 -7 -28 -4 -21 8 -15 13 15 13 20
0 23 -3 13 -9z m242 -23 c20 -12 15 -14 -48 -18 -38 -3 -86 -3 -105 1 l-35 7
32 1 c17 0 35 5 38 11 3 6 -1 7 -9 4 -9 -4 -16 -1 -16 6 0 16 110 6 143 -12z
m-3058 -28 c3 -5 1 -10 -4 -10 -6 0 -11 5 -11 10 0 6 2 10 4 10 3 0 8 -4 11
-10z m2755 -30 c0 -5 -4 -10 -10 -10 -5 0 -10 5 -10 10 0 6 5 10 10 10 6 0 10
-4 10 -10z m-351 -82 l23 -38 -26 0 c-24 0 -26 4 -26 42 0 23 1 39 3 37 2 -2
14 -21 26 -41z m330 23 c10 -7 4 -17 -28 -46 -22 -21 -41 -43 -41 -49 0 -7 -6
-21 -14 -31 -12 -17 -13 -13 -4 35 9 52 39 100 62 100 6 0 17 -4 25 -9z m231
-21 c-70 -20 -150 -26 -190 -15 -24 7 -24 7 -5 -8 11 -9 15 -17 10 -17 -6 0
-16 5 -22 11 -8 8 -16 6 -29 -10 -10 -11 -23 -21 -28 -21 -12 0 24 39 49 52
26 15 112 25 205 26 l75 1 -65 -19z m-2954 -5 c-3 -8 -2 -15 2 -15 4 0 13 -12
20 -27 9 -20 9 -24 0 -15 -15 15 -32 16 -23 2 10 -15 -6 -12 -26 6 -19 17 -15
44 7 44 8 0 14 5 14 10 0 6 3 10 6 10 3 0 4 -7 0 -15z m414 -7 c0 -13 -4 -29
-9 -37 -8 -12 -12 -13 -26 -1 -16 13 -20 10 -57 -44 -12 -17 -19 0 -12 28 3
14 11 26 18 26 6 0 22 12 35 25 29 31 51 32 51 3z m-188 -117 c9 -22 8 -102
-2 -126 -6 -14 -9 -4 -9 37 -1 43 -5 60 -19 70 -10 7 -22 27 -26 43 -4 17 -9
39 -12 50 -6 21 56 -46 68 -74z m-112 33 c0 -27 -4 -43 -10 -39 -5 3 -10 2
-10 -4 0 -5 -12 -9 -27 -8 -21 2 -28 -3 -33 -22 l-5 -24 -29 25 -29 25 23 23
c19 19 33 23 67 21 40 -2 43 -1 43 23 0 14 2 26 5 26 3 0 5 -21 5 -46z m2300
-20 c22 -9 40 -19 40 -23 0 -10 -31 -7 -48 3 -21 13 -27 -3 -7 -18 17 -12 17
-13 -8 -18 -25 -5 -27 -3 -27 33 0 22 2 39 5 39 2 0 23 -7 45 -16z m650 -16
c-29 -73 -67 -131 -81 -122 -5 3 -9 1 -9 -3 0 -5 -7 -18 -15 -29 -15 -19 -15
-19 -8 0 5 15 3 18 -10 13 -15 -5 -16 -3 -7 13 16 30 12 35 -12 14 -40 -35 -6
7 39 49 41 38 103 87 110 87 1 0 -2 -10 -7 -22z m-2892 -69 c2 -19 -2 -28 -8
-24 -11 7 -14 38 -3 48 9 10 8 10 11 -24z m-52 -19 c20 0 44 -17 44 -32 0 -4
-5 -8 -11 -8 -5 0 -7 5 -4 10 7 11 -4 13 -50 10 -37 -2 -44 -8 -25 -20 13 -9
13 -10 0 -10 -8 0 -22 5 -30 10 -13 8 -13 13 -2 30 7 11 10 25 7 30 -3 5 7 3
22 -5 15 -8 37 -15 49 -15z m2282 6 c15 -7 56 -16 91 -20 35 -3 70 -11 77 -17
22 -18 17 -79 -11 -119 -36 -51 -40 -161 -7 -207 23 -32 29 -63 13 -63 -6 0
-16 12 -23 27 -26 55 -98 62 -98 10 0 -38 16 -52 61 -52 23 0 44 -5 46 -11 3
-8 -13 -8 -54 -2 -32 5 -75 7 -95 4 l-38 -6 0 235 c0 129 2 235 5 235 4 0 18
-6 33 -14z m347 -6 c-10 -11 -21 -17 -24 -14 -3 3 3 12 13 20 28 20 32 17 11
-6z m-2984 -27 c8 -10 9 -14 2 -10 -6 4 -14 3 -18 -3 -3 -5 -10 -10 -16 -10
-5 0 -4 9 3 20 15 24 13 24 29 3z m121 -28 c3 -13 1 -22 -3 -19 -9 5 -13 44
-5 44 2 0 6 -11 8 -25z m2925 1 c-63 -59 -97 -78 -135 -78 -66 0 -73 2 -67 13
4 6 14 8 22 5 8 -3 12 -2 9 3 -3 5 2 12 12 16 19 9 175 64 181 65 2 0 -8 -11
-22 -24z m-2974 -33 c1 -5 -5 -8 -13 -9 -35 -2 -41 -5 -35 -14 4 -6 -6 -10
-22 -9 -25 0 -26 1 -8 9 11 5 14 9 7 9 -9 1 -10 6 -3 20 6 10 7 22 3 26 -4 5
-2 5 5 1 6 -3 14 -2 18 3 5 9 42 -19 48 -36z m604 21 c-3 -3 -12 -4 -19 -1 -8
3 -5 6 6 6 11 1 17 -2 13 -5z m-147 -46 c0 -37 19 -79 38 -86 6 -2 12 5 13 15
0 15 2 14 12 -5 9 -20 8 -26 -5 -33 -9 -5 -19 -20 -22 -34 -4 -14 -13 -25 -21
-25 -8 0 -18 -7 -23 -17 -9 -15 -10 -14 -15 3 -11 38 -18 155 -12 184 9 41 35
39 35 -2z m30 5 c0 -16 3 -39 6 -53 5 -19 4 -22 -5 -14 -17 16 -27 94 -12 94
6 0 11 -12 11 -27z m-413 -49 c-1 -1 -16 -5 -32 -8 -16 -3 -31 -10 -33 -15 -7
-20 -32 2 -32 29 0 23 3 27 24 23 13 -3 29 2 37 10 12 12 15 11 26 -11 8 -14
12 -26 10 -28z m475 -29 c2 -19 1 -32 -3 -27 -10 11 -20 74 -10 68 5 -3 11
-22 13 -41z m48 15 c0 -5 -4 -10 -10 -10 -5 0 -10 5 -10 10 0 6 5 10 10 10 6
0 10 -4 10 -10z m3009 -32 c-13 -56 -28 -83 -25 -43 3 41 16 85 26 85 4 0 4
-19 -1 -42z m-3707 -27 c-4 -35 -8 -41 -34 -46 -17 -4 -35 -2 -41 4 -8 8 -8
11 0 11 7 0 24 5 39 10 25 10 26 12 10 29 -22 24 -20 31 7 31 20 0 22 -4 19
-39z m688 9 c0 -5 -5 -10 -11 -10 -5 0 -7 5 -4 10 3 6 8 10 11 10 2 0 4 -4 4
-10z m-380 -15 c58 -14 54 -18 -20 -19 -35 -1 -44 -4 -42 -16 2 -10 -4 -7 -18
8 -11 12 -25 22 -30 22 -6 0 -10 5 -10 10 0 14 54 12 120 -5z m2984 -15 c7 -7
4 -10 -9 -11 -11 0 -32 -3 -47 -5 -19 -3 -28 0 -28 8 0 10 -2 10 -8 1 -5 -9
-17 -10 -37 -4 l-30 9 25 11 c28 12 118 7 134 -9z m-3042 -50 c10 0 10 -2 1
-8 -7 -5 -26 -7 -43 -6 -16 1 -30 -3 -30 -8 0 -6 -11 -7 -27 -3 -23 5 -25 4
-13 -10 20 -24 6 -27 -19 -4 -31 29 -12 49 46 49 42 0 43 1 33 23 -10 19 -7
18 14 -5 14 -16 31 -28 38 -28z m426 19 c-10 -5 -18 -21 -18 -34 0 -27 17 -34
26 -10 4 8 10 12 15 10 13 -8 -31 -47 -46 -41 -7 2 -15 15 -18 28 -3 17 -5 14
-6 -10 -1 -34 -20 -62 -41 -62 -7 0 -9 -8 -5 -19 3 -10 -1 -24 -10 -31 -13
-11 -15 -7 -15 27 0 42 14 65 36 56 8 -3 15 5 19 24 11 47 14 55 24 49 5 -3
11 1 15 9 3 8 13 15 23 15 17 -1 17 -1 1 -11z m2162 -26 c0 -20 -3 -24 -11
-16 -7 7 -9 19 -6 27 10 24 17 19 17 -11z m815 -11 c-11 -9 -14 -10 -7 -2 18
21 15 34 -5 19 -16 -13 -17 -12 -4 4 10 12 17 15 25 7 7 -7 4 -15 -9 -28z
m-3720 18 c3 -5 17 -10 31 -10 36 0 29 -20 -8 -22 -43 -1 -92 3 -98 9 -8 7 32
33 51 33 10 0 21 -4 24 -10z m280 -39 c-3 -6 -11 -11 -17 -11 -6 0 -6 6 2 15
14 17 26 13 15 -4z m-35 -11 c0 -5 -4 -10 -10 -10 -5 0 -10 5 -10 10 0 6 5 10
10 10 6 0 10 -4 10 -10z m-295 -10 c-3 -5 -2 -10 4 -10 5 0 12 4 16 10 3 5 12
7 21 3 21 -8 11 -14 -36 -23 -39 -7 -40 -7 -24 11 18 20 29 25 19 9z m225 0
c-19 -13 -30 -13 -30 0 0 6 10 10 23 10 18 0 19 -2 7 -10z m3235 0 c-3 -5 -11
-10 -16 -10 -6 0 -7 5 -4 10 3 6 11 10 16 10 6 0 7 -4 4 -10z m-604 -33 c-8
-8 -11 -7 -11 4 0 20 13 34 18 19 3 -7 -1 -17 -7 -23z m-2572 4 c15 -10 5 -18
-38 -31 -22 -6 -32 -4 -45 11 -9 11 -16 21 -16 24 0 9 84 5 99 -4z m671 -190
c0 -205 -5 -228 -39 -194 -8 8 -23 12 -33 10 -13 -4 -19 0 -17 11 4 41 0 44
-51 40 -43 -3 -50 0 -52 17 -4 30 -48 30 -108 0 -29 -15 -54 -24 -57 -21 -8 7
7 26 21 26 7 0 25 14 42 31 16 17 45 42 64 54 41 27 100 83 100 96 0 5 -7 9
-15 9 -8 0 -15 4 -15 10 0 9 37 21 103 35 28 6 38 37 16 51 -8 4 -7 9 2 15 37
23 39 14 39 -190z m2155 189 c-3 -5 -11 -10 -16 -10 -6 0 -7 5 -4 10 3 6 11
10 16 10 6 0 7 -4 4 -10z m-1567 -402 l2 -398 -230 0 c-256 0 -287 6 -314 59
-14 26 -16 82 -16 380 l0 350 23 3 c12 2 137 3 277 3 l255 0 3 -397z m1172 39
c0 -397 1 -390 -60 -422 -23 -12 -75 -15 -265 -15 l-235 0 0 400 0 400 280 0
280 0 0 -363z m-2736 341 c-3 -4 -9 -8 -15 -8 -5 0 -9 4 -9 8 0 5 7 9 15 9 8
0 12 -4 9 -9z m798 -20 c-26 -25 -27 -26 -35 -6 -10 27 -2 36 32 34 l30 -1
-27 -27z m-242 7 c-12 -15 -30 -12 -30 6 0 5 10 9 21 9 18 0 19 -2 9 -15z
m2810 -2 c0 -5 -5 -15 -10 -23 -7 -12 -9 -10 -7 8 1 19 17 33 17 15z m-2840
-16 c0 -25 -26 -49 -49 -45 l-23 3 22 28 c23 28 50 36 50 14z m-280 -11 c0 -3
-4 -8 -10 -11 -5 -3 -10 -1 -10 4 0 6 5 11 10 11 6 0 10 -2 10 -4z m3127 -28
c-3 -7 -5 -2 -5 12 0 14 2 19 5 13 2 -7 2 -19 0 -25z m-2682 1 c4 -6 -1 -16
-11 -23 -11 -8 -15 -21 -11 -35 3 -11 1 -19 -4 -15 -16 9 -11 84 5 84 8 0 18
-5 21 -11z m2536 -40 c-17 -40 -63 -91 -116 -130 -17 -12 -16 -10 3 15 15 19
19 33 13 39 -7 7 4 20 29 38 21 16 49 42 61 59 30 40 34 32 10 -21z m-2470 -2
c-13 -13 -26 -3 -16 12 3 6 11 8 17 5 6 -4 6 -10 -1 -17z m2226 11 c12 -16 43
-99 43 -115 0 -6 -26 6 -59 28 -32 21 -63 39 -69 39 -5 0 -15 6 -21 14 -10 11
-7 17 11 30 27 19 82 21 95 4z m667 -38 c4 -5 -18 -11 -50 -14 -33 -4 -74 -9
-93 -11 -44 -6 -29 9 29 28 43 15 95 13 114 -3z m-323 -37 c-12 -20 -14 -14
-5 12 4 9 9 14 11 11 3 -2 0 -13 -6 -23z m-2661 -14 c0 -24 -17 -59 -29 -59
-5 0 -4 20 2 45 10 44 27 53 27 14z m2795 21 c-3 -5 -1 -10 6 -10 7 0 10 -3 6
-6 -9 -9 -28 6 -22 17 4 5 8 9 11 9 3 0 2 -4 -1 -10z m-628 -70 c-1 -3 11 -18
27 -33 21 -19 24 -27 13 -27 -9 0 -34 17 -57 38 -41 40 -51 42 -25 5 24 -34
75 -60 145 -74 36 -6 77 -18 92 -25 24 -12 25 -16 17 -51 -18 -78 -11 -125 33
-223 13 -28 14 -40 4 -64 -19 -47 -40 -46 -31 1 6 40 -10 73 -36 73 -5 0 -9
22 -9 48 0 26 -9 73 -20 105 -11 31 -20 64 -20 74 0 10 -4 24 -9 32 -7 12 -15
8 -40 -16 -51 -51 -74 -107 -79 -193 -4 -62 0 -89 17 -134 11 -31 21 -60 21
-64 0 -9 -90 -55 -96 -49 -8 7 -25 117 -20 126 3 4 6 124 7 266 l1 257 33 -32
c19 -18 33 -36 32 -40z m-2395 -25 c10 -21 8 -27 -8 -39 -17 -13 -16 -14 11
-9 17 3 35 10 42 15 18 15 30 2 37 -39 11 -62 16 -70 39 -78 12 -4 25 -7 28
-6 8 0 48 -102 43 -108 -6 -7 -57 22 -83 46 -13 13 -27 21 -31 18 -4 -3 -13 2
-20 10 -10 12 -17 12 -52 -6 l-39 -20 11 20 c6 13 21 21 36 21 20 0 25 4 20
16 -3 9 -7 30 -7 47 -1 18 -3 24 -6 15 -2 -10 -10 -15 -19 -11 -8 3 -14 0 -14
-7 0 -6 -5 -8 -10 -5 -6 4 -8 10 -5 14 2 5 -7 13 -20 19 -13 6 -27 23 -31 38
-4 16 -9 21 -14 14 -5 -8 -10 -7 -18 2 -7 9 -7 19 -2 28 8 13 13 13 31 2 18
-12 23 -11 36 7 19 28 31 26 45 -4z m2686 5 c-7 -11 -17 -20 -22 -20 -5 0 -1
9 9 20 10 11 20 20 22 20 2 0 -2 -9 -9 -20z m-6 -72 c-15 -31 -28 -79 -32
-117 -4 -36 -8 -58 -9 -48 0 9 -6 25 -12 36 -18 28 -3 83 37 135 19 25 37 46
38 46 2 0 -8 -23 -22 -52z m-2249 15 c-7 -2 -19 -2 -25 0 -7 3 -2 5 12 5 14 0
19 -2 13 -5z m-220 -76 c-5 -60 -3 -75 11 -86 14 -12 20 -11 41 9 l25 23 0
-25 c0 -36 32 -62 70 -55 22 5 30 3 30 -7 0 -8 -7 -16 -15 -19 -8 -4 -26 -24
-41 -46 -22 -35 -25 -45 -16 -70 8 -24 7 -31 -5 -35 -24 -10 -33 3 -33 48 0
34 -6 48 -29 70 -18 17 -37 54 -51 97 -12 38 -28 73 -36 80 -21 17 12 89 41
89 10 0 12 -17 8 -73z m42 -4 c3 -46 1 -62 -9 -66 -20 -8 -26 2 -26 44 0 34
18 94 26 86 2 -2 6 -31 9 -64z m2785 32 c-16 -19 -100 -74 -175 -115 l-60 -32
43 41 c24 22 41 45 38 50 -8 12 21 34 34 26 5 -3 10 -2 10 3 0 7 15 14 95 37
22 7 27 4 15 -10z m-3085 -5 c4 -6 -6 -10 -22 -9 -25 0 -26 1 -8 9 11 5 21 9
22 9 1 1 5 -3 8 -9z m532 -6 c-3 -3 -12 -4 -19 -1 -8 3 -5 6 6 6 11 1 17 -2
13 -5z m-159 -52 c13 -24 17 -40 11 -37 -7 5 -9 -1 -7 -16 2 -13 9 -23 16 -21
6 1 12 -2 12 -8 0 -14 -12 -12 -38 6 -18 13 -22 25 -22 71 0 31 1 54 3 52 2
-2 13 -23 25 -47z m212 28 c0 -5 -6 -10 -14 -10 -8 0 -18 5 -21 10 -3 6 3 10
14 10 12 0 21 -4 21 -10z m1946 -36 c-4 -19 -7 -60 -7 -90 -1 -30 -5 -54 -9
-54 -5 0 -3 -13 3 -29 10 -28 5 -61 -11 -61 -5 0 -7 15 -5 33 3 24 2 29 -6 17
-9 -12 -11 -9 -11 14 0 24 -2 27 -15 16 -24 -20 -8 74 23 138 29 60 46 68 38
16z m-2086 -16 c0 -5 8 -20 17 -35 19 -29 25 -53 14 -53 -18 0 -52 51 -58 86
-6 36 -5 38 10 25 10 -7 17 -18 17 -23z m129 -82 c-9 -7 -74 30 -73 42 1 6 2
18 3 25 1 6 17 -5 37 -26 20 -21 35 -39 33 -41z m-711 29 c20 -19 32 -35 27
-35 -6 0 -21 10 -35 23 -14 13 -34 28 -45 35 -18 10 -18 11 -2 12 9 0 34 -16
55 -35z m2932 27 c0 -5 -7 -17 -15 -28 -14 -18 -14 -17 -4 9 12 27 19 34 19
19z m-3290 -37 c31 -16 37 -29 20 -40 -6 -4 -8 -11 -5 -16 11 -17 -10 -9 -27
10 -18 21 -33 61 -23 61 3 0 19 -7 35 -15z m103 8 c9 -9 -12 -33 -29 -33 -8 0
-14 9 -14 20 0 19 28 28 43 13z m153 -7 c10 -8 16 -17 12 -21 -4 -4 -17 2 -29
14 -26 24 -13 29 17 7z m-72 -32 c3 -8 2 -12 -4 -9 -6 4 -20 3 -31 0 -15 -5
-18 -9 -9 -15 7 -5 8 -10 2 -14 -5 -3 -15 1 -21 8 -10 12 -7 17 16 29 37 20
40 20 47 1z m871 0 c21 -5 23 -12 27 -82 3 -42 8 -86 13 -96 7 -16 5 -18 -10
-12 -11 4 -25 0 -36 -10 -16 -15 -20 -13 -56 23 -37 37 -38 41 -26 69 6 16 12
41 13 57 0 35 21 69 38 62 8 -3 24 -8 37 -11z m-1121 0 c24 -9 19 -21 -9 -26
-19 -4 -25 -1 -25 13 0 20 8 23 34 13z m726 2 c0 -3 -4 -8 -10 -11 -5 -3 -10
-1 -10 4 0 6 5 11 10 11 6 0 10 -2 10 -4z m302 -40 c-4 -28 -23 -56 -38 -56
-4 0 -16 8 -26 17 -18 16 -18 17 9 45 35 36 59 33 55 -6z m-623 -11 c34 6 81
-14 74 -32 -5 -13 0 -12 23 4 36 26 107 22 101 -6 -2 -9 -9 -15 -15 -13 -20 4
-53 -18 -46 -30 4 -7 -1 -8 -16 -3 -17 5 -21 4 -15 -5 5 -8 4 -11 -3 -6 -6 4
-9 13 -5 21 8 23 -23 18 -67 -11 -22 -15 -43 -24 -46 -21 -3 3 12 15 35 27 23
11 41 23 41 26 0 3 -3 3 -7 1 -5 -2 -26 -12 -48 -21 -22 -10 -46 -26 -53 -35
-12 -14 -13 -11 -7 19 4 19 11 39 16 45 18 19 8 27 -14 12 -13 -8 -34 -17 -48
-19 -13 -1 -26 -6 -29 -9 -7 -10 -45 -15 -47 -6 -8 21 -1 47 11 47 19 0 48 29
41 40 -3 5 19 0 49 -10 29 -11 63 -17 75 -15z m3743 9 c32 -9 55 -20 52 -25
-8 -14 -128 -11 -142 3 -9 9 -12 9 -12 -1 0 -9 -5 -8 -16 3 -8 9 -30 16 -47
17 -31 1 -31 1 -7 9 42 13 111 11 172 -6z m-4173 -3 c11 -7 6 -12 -20 -19 -41
-11 -51 -5 -25 14 23 16 26 17 45 5z m3958 -17 c-3 -3 -12 -4 -19 -1 -8 3 -5
6 6 6 11 1 17 -2 13 -5z m-3783 -29 c-4 -8 -12 -15 -19 -15 -7 0 -18 -7 -25
-15 -7 -8 -21 -15 -31 -15 -11 0 -19 -4 -19 -10 0 -5 -5 -10 -12 -10 -18 0 23
40 62 61 43 22 51 23 44 4z m814 -13 c-5 -27 -28 -26 -28 2 0 19 4 24 15 19 9
-3 15 -12 13 -21z m-107 -4 c11 -21 11 -22 -4 -9 -10 7 -17 17 -17 22 0 15 9
10 21 -13z m3069 1 c-45 -36 -57 -40 -70 -24 -10 12 -9 16 5 21 14 6 68 20 85
23 3 0 -6 -8 -20 -20z m-885 1 c3 -5 1 -10 -4 -10 -6 0 -11 5 -11 10 0 6 2 10
4 10 3 0 8 -4 11 -10z m135 2 c0 -13 -12 -22 -22 -16 -10 6 -1 24 13 24 5 0 9
-4 9 -8z m650 -41 c0 -6 -4 -12 -8 -15 -5 -3 -9 1 -9 9 0 8 4 15 9 15 4 0 8
-4 8 -9z m-85 -21 c4 -6 -6 -10 -22 -9 -25 0 -26 1 -8 9 11 5 21 9 22 9 1 1 5
-3 8 -9z m-3625 -7 c0 -9 -122 -59 -126 -52 -8 14 5 29 25 29 10 0 23 6 29 13
8 10 72 18 72 10z m900 -12 c9 -1 7 -41 -1 -41 -4 0 -14 7 -23 15 -8 8 -26 16
-40 17 -14 1 -26 6 -26 11 0 7 16 6 90 -2z m2179 -6 c2 -2 1 -11 -2 -20 -5
-10 -20 -15 -53 -15 l-47 0 23 26 c19 19 31 24 50 19 14 -4 27 -8 29 -10z
m-3067 -35 c3 -16 3 -30 1 -30 -7 0 -21 45 -16 53 7 13 11 8 15 -23z m636 1
c-9 -15 -15 -17 -26 -9 -10 9 -11 13 0 19 7 5 19 9 26 9 10 0 10 -4 0 -19z
m186 7 c-3 -4 5 -13 18 -18 47 -22 73 -40 73 -51 0 -27 -105 -34 -121 -8 -3 6
-1 16 6 23 6 8 8 25 5 38 -5 18 -2 25 9 25 8 0 13 -4 10 -9z m2436 2 c0 -5 -5
-10 -11 -10 -5 0 -7 5 -4 10 3 6 8 10 11 10 2 0 4 -4 4 -10z m-2790 -52 c5
-16 5 -28 1 -28 -15 0 -34 49 -26 67 6 15 8 15 12 3 2 -8 8 -27 13 -42z m516
36 c14 6 16 0 12 -45 -4 -36 -1 -55 9 -65 10 -10 11 -14 2 -14 -29 0 7 -15 46
-20 6 0 2 -7 -8 -15 -18 -13 -17 -14 10 -17 19 -2 28 -8 27 -20 -1 -10 2 -18
7 -18 25 0 3 -17 -37 -29 -54 -16 -78 -4 -52 26 9 10 16 30 16 46 -1 28 -7 34
-23 18 -6 -6 -29 -14 -53 -19 -33 -8 -46 -7 -57 4 -12 12 -12 18 3 44 18 32
54 50 60 31 5 -14 32 -15 32 -1 0 5 -9 33 -19 61 -14 37 -16 47 -5 39 7 -7 21
-9 30 -6z m108 -9 c14 -11 48 -15 120 -16 72 0 94 -3 78 -9 -30 -12 -36 -31
-23 -75 8 -30 7 -36 -4 -31 -8 3 -21 -2 -30 -10 -13 -14 -13 -19 4 -53 18 -34
18 -38 3 -48 -15 -9 -15 -13 -2 -39 8 -16 16 -32 18 -37 2 -4 -8 -2 -22 4 -19
9 -26 20 -26 40 0 45 -48 184 -71 205 -20 18 -21 18 -35 0 -17 -24 -18 -23
-31 37 -11 51 -9 54 21 32z m2384 -10 c-3 -3 -9 2 -12 12 -6 14 -5 15 5 6 7
-7 10 -15 7 -18z m-3568 -28 c0 -5 -4 -5 -10 -2 -5 3 -10 0 -10 -8 0 -7 -12
-20 -26 -27 -21 -12 -23 -16 -11 -25 8 -6 14 -23 14 -38 -3 -37 -17 -34 -17 3
0 19 -7 33 -20 40 -25 14 -17 30 30 63 33 22 49 20 50 -6z m714 15 l23 -17
-23 -18 c-32 -24 -44 -21 -44 11 0 45 11 51 44 24z m2105 -35 c-11 -11 -16
-10 -32 6 -21 21 -21 23 13 35 21 8 26 6 28 -9 2 -10 -2 -24 -9 -32z m337 28
c-27 -13 -58 -26 -70 -30 -31 -9 -85 -11 -79 -2 2 4 -5 7 -17 7 -14 0 -19 -4
-14 -12 4 -7 4 -10 -1 -6 -4 4 -13 3 -20 -2 -14 -12 -14 25 1 39 18 18 80 29
164 29 l85 0 -49 -23z m-1197 -19 c16 -16 33 -42 36 -58 l7 -29 21 43 c37 73
56 78 320 78 153 0 227 -3 227 -11 0 -5 4 -7 10 -4 7 4 7 -3 0 -20 -6 -15 -10
-51 -10 -81 0 -39 -3 -53 -12 -48 -11 7 -9 -10 7 -48 4 -10 3 -18 -3 -18 -11
0 -21 33 -22 75 -1 29 -1 29 -11 6 -5 -13 -7 -43 -3 -65 12 -84 13 -101 5 -86
-31 55 -18 211 20 246 10 9 19 22 19 27 0 6 -11 1 -24 -12 -35 -33 -49 -88
-45 -177 l4 -80 -47 10 c-45 9 -51 8 -148 -43 l-102 -53 27 41 c37 55 37 104
1 157 l-28 42 -191 -3 -192 -2 -37 -47 c-45 -57 -48 -89 -13 -140 14 -20 25
-39 25 -42 0 -3 -43 18 -97 46 l-96 52 -69 -36 c-37 -21 -68 -35 -68 -31 0 3
7 20 16 36 8 17 13 38 10 46 -4 8 3 30 15 49 21 35 19 54 -7 54 -18 0 -18 11
1 36 17 22 20 60 5 69 -5 3 -10 15 -10 25 0 10 -6 21 -12 24 -7 3 89 4 214 3
l227 -2 30 -29z m799 -24 c1 -31 7 -72 13 -89 19 -58 -51 -181 -123 -219 -76
-40 -79 -36 -27 32 43 57 49 71 49 112 0 26 -9 81 -20 122 -11 41 -20 81 -20
88 0 8 19 12 63 12 l62 0 3 -58z m-2318 26 c-18 -20 -19 -23 -4 -31 11 -6 23
-2 40 14 29 28 31 17 3 -27 -11 -19 -17 -39 -13 -45 5 -8 3 -9 -6 -4 -7 4 -16
2 -22 -6 -7 -10 -8 -4 -4 19 5 28 2 34 -19 42 -31 12 -32 23 -2 43 34 24 51
21 27 -5z m3150 -17 c0 -11 -4 -9 -15 5 -13 17 -14 17 -15 2 0 -25 -16 -30
-31 -10 -7 9 -10 14 -5 10 4 -4 18 2 29 13 22 20 37 12 37 -20z m-2106 0 c0
-11 5 -21 13 -21 17 0 17 -21 -2 -46 -14 -18 -14 -18 -8 4 3 13 1 22 -6 22 -7
0 -9 -4 -6 -10 3 -5 -1 -10 -9 -10 -9 0 -16 -7 -16 -15 0 -8 -5 -15 -10 -15
-6 0 -4 15 5 36 8 20 15 48 15 61 0 15 5 23 13 20 6 -2 12 -14 11 -26z m-1245
-11 c10 -31 6 -36 -18 -21 -8 5 -11 16 -6 30 8 28 11 27 24 -9z m2669 -10 c-7
-10 -14 -17 -17 -15 -4 4 18 35 25 35 2 0 -1 -9 -8 -20z m1072 10 c-13 -8 -12
-10 2 -10 9 0 21 -7 26 -16 5 -9 21 -18 35 -19 15 -2 39 -13 53 -24 24 -19 25
-21 6 -21 -18 0 -135 71 -146 89 -3 4 5 8 17 8 17 2 19 0 7 -7z m-349 -71 c8
-5 9 -9 3 -9 -6 0 -23 9 -38 21 -22 18 -25 24 -14 36 11 14 14 12 24 -12 6
-15 17 -31 25 -36z m-3448 23 c-3 -12 -9 -22 -14 -22 -12 0 -11 7 3 30 15 24
19 21 11 -8z m1021 13 c-4 -8 -10 -12 -15 -9 -11 6 -2 24 11 24 5 0 7 -7 4
-15z m-430 -34 c25 -25 34 -41 26 -46 -6 -4 -17 -1 -25 5 -8 6 -19 9 -25 5 -5
-3 -10 -1 -10 6 0 7 -7 20 -16 30 -15 17 -12 39 5 39 4 0 24 -17 45 -39z
m3094 9 c23 -30 20 -38 -8 -20 -8 5 -15 15 -15 22 0 7 -9 12 -20 10 -17 -2
-17 -1 -5 7 22 15 24 14 48 -19z m-988 16 c0 -3 -4 -8 -10 -11 -5 -3 -10 -1
-10 4 0 6 5 11 10 11 6 0 10 -2 10 -4z m-2750 -22 c0 -8 -5 -12 -10 -9 -6 4
-8 11 -5 16 9 14 15 11 15 -7z m2720 -8 c0 -2 -8 -10 -17 -17 -16 -13 -17 -12
-4 4 13 16 21 21 21 13z m-1401 -67 c-26 -24 -35 -27 -37 -15 -4 20 50 68 62
55 6 -5 -3 -21 -25 -40z m415 45 c38 -15 -1 -64 -51 -64 l-34 0 28 35 c30 37
32 38 57 29z m352 -30 l24 -30 -39 -2 c-32 -2 -41 1 -46 18 -4 11 -10 18 -15
15 -5 -3 -11 1 -13 7 -5 13 -11 -15 -8 -39 2 -18 -103 -36 -147 -26 -41 10
-44 18 -20 52 15 21 26 24 104 27 48 2 89 6 93 9 12 13 45 -2 67 -31z m-1370
-39 c-5 -29 -11 -42 -20 -39 -16 6 -15 84 2 84 6 0 12 6 13 13 0 9 2 9 6 -1 3
-7 2 -33 -1 -57z m-135 35 c11 0 17 -5 14 -10 -4 -6 -11 -8 -16 -5 -5 4 -9 2
-9 -4 0 -6 -7 -8 -15 -5 -10 4 -15 0 -15 -12 0 -16 -1 -16 -14 2 -17 22 -2 49
21 39 8 -3 24 -5 34 -5z m65 -47 c-10 -10 -19 5 -10 18 6 11 8 11 12 0 2 -7 1
-15 -2 -18z m294 17 c0 -5 -11 -10 -25 -10 -14 0 -25 5 -25 10 0 6 11 10 25
10 14 0 25 -4 25 -10z m-55 -31 c0 -13 5 -27 10 -31 6 -4 -9 -8 -32 -8 -49 0
-54 12 -21 47 26 28 43 25 43 -8z m2205 20 c11 -8 8 -9 -14 -4 -26 6 -28 4
-16 -10 11 -13 10 -15 -4 -9 -17 6 -20 16 -9 27 9 10 26 8 43 -4z m-1980 -14
c16 -19 0 -19 -26 0 -16 12 -16 14 -3 15 9 0 22 -7 29 -15z m1640 10 c0 -6
-115 -84 -136 -92 -15 -6 -15 -3 2 26 27 47 61 71 100 71 19 0 34 -2 34 -5z
m523 -31 c27 -7 44 -21 34 -30 -3 -3 -43 -8 -91 -11 -60 -4 -90 -2 -100 6 -8
7 -21 9 -27 5 -8 -4 -9 -3 -5 4 4 7 14 12 23 12 12 0 13 3 4 14 -9 11 -8 14 6
12 10 0 17 4 16 11 -2 8 13 7 55 -3 31 -8 69 -17 85 -20z m-1243 -16 c0 -25
-8 -56 -19 -74 -17 -28 -24 -31 -59 -28 -26 1 -45 -3 -52 -12 -9 -9 -17 -11
-30 -4 -9 5 -20 7 -22 4 -3 -3 -17 -7 -31 -9 -46 -9 -112 89 -89 131 9 16 23
18 99 16 48 -1 104 2 123 7 72 19 80 16 80 -31z m-1408 10 c-7 -7 -12 -8 -12
-2 0 14 12 26 19 19 2 -3 -1 -11 -7 -17z m1818 12 c0 -5 -4 -10 -10 -10 -5 0
-10 5 -10 10 0 6 5 10 10 10 6 0 10 -4 10 -10z m-1100 -5 c0 -13 -38 -64 -43
-59 -8 9 21 64 33 64 6 0 10 -2 10 -5z m1734 -12 c-12 -8 -21 -9 -29 -3 -7 5
-16 6 -20 2 -5 -4 -6 -2 -3 3 4 6 20 10 37 10 27 0 29 -2 15 -12z m-204 3 c0
-3 -4 -8 -10 -11 -5 -3 -10 -1 -10 4 0 6 5 11 10 11 6 0 10 -2 10 -4z m-430
-16 c0 -5 -2 -10 -4 -10 -3 0 -8 5 -11 10 -3 6 -1 10 4 10 6 0 11 -4 11 -10z
m-74 -25 c12 -7 24 -25 26 -39 4 -20 2 -24 -7 -16 -6 5 -15 7 -18 3 -4 -3 -14
0 -23 8 -10 8 -20 14 -23 13 -3 -1 -14 12 -24 29 l-18 30 32 -7 c18 -3 43 -13
55 -21z m-1776 -6 c0 -11 -4 -17 -10 -14 -5 3 -10 13 -10 21 0 8 5 14 10 14 6
0 10 -9 10 -21z m2233 2 c19 -19 2 -21 -57 -9 -39 7 -53 14 -44 20 16 11 87 3
101 -11z m-1395 -53 c-11 -62 -13 -65 -31 -50 -8 7 -17 9 -20 5 -13 -12 -36
18 -29 38 6 16 59 53 83 58 4 0 2 -23 -3 -51z m-567 32 c23 0 25 -16 3 -24 -8
-3 -12 -2 -9 4 4 6 -10 10 -34 10 -23 0 -41 -2 -41 -4 0 -2 -3 -12 -6 -21 -4
-9 -3 -15 2 -14 30 5 37 -2 16 -17 -13 -9 -31 -13 -45 -9 -17 5 -19 4 -7 -4
13 -9 13 -11 -2 -11 -10 0 -18 6 -18 13 0 9 -2 9 -8 0 -6 -9 -11 -7 -20 7 -11
18 -9 20 22 20 33 0 56 23 35 35 -23 15 6 27 49 21 25 -3 53 -6 63 -6z m1229
6 c0 -3 -4 -8 -10 -11 -5 -3 -10 -1 -10 4 0 6 5 11 10 11 6 0 10 -2 10 -4z
m-1280 -30 c0 -3 -4 -8 -10 -11 -5 -3 -10 -1 -10 4 0 6 5 11 10 11 6 0 10 -2
10 -4z m780 -43 c34 -21 58 -39 52 -41 -10 -3 -191 43 -199 52 -3 3 0 13 7 22
19 22 64 11 140 -33z m-413 7 c-4 -14 0 -20 11 -21 10 0 12 -3 5 -5 -7 -3 -9
-12 -6 -20 3 -10 0 -12 -10 -8 -17 6 -37 -23 -30 -43 2 -7 -1 -21 -7 -33 -11
-20 -12 -20 -41 -3 -37 22 -38 66 -1 71 19 3 22 -1 23 -35 0 -29 2 -33 8 -18
5 11 7 28 5 38 -1 9 2 17 8 17 5 0 7 7 4 16 -4 9 1 27 9 40 19 29 29 31 22 4z
m1137 4 c3 -9 6 -19 6 -24 0 -9 -179 -44 -187 -36 -3 3 8 8 23 12 16 4 41 15
55 25 55 38 94 47 103 23z m-344 1 c0 -12 -24 -55 -32 -55 -11 0 -10 17 2 41
9 17 30 27 30 14z m945 -20 c30 -29 34 -50 6 -36 -23 13 -55 61 -41 61 6 0 22
-11 35 -25z m-2066 -18 c0 -21 -1 -21 -9 -2 -12 28 -12 37 0 30 6 -3 10 -16 9
-28z m1071 24 c0 -5 -9 -19 -20 -32 l-21 -24 16 33 c15 31 25 41 25 23z
m-1217 -28 c24 -6 21 -24 -10 -53 l-26 -25 6 30 c3 17 4 24 1 17 -3 -6 -10
-10 -15 -6 -5 3 -5 -6 1 -20 8 -22 6 -28 -13 -41 -30 -20 -69 -25 -87 -12 -12
9 -13 8 -3 -2 6 -7 9 -20 6 -27 -4 -11 2 -11 33 2 l39 16 -38 -32 c-20 -17
-35 -35 -32 -40 6 -10 -24 -22 -36 -14 -6 3 -4 16 6 30 14 22 14 26 0 40 -11
12 -12 20 -5 35 10 18 31 24 72 20 25 -3 31 17 9 29 -30 16 -47 50 -30 61 13
8 80 4 122 -8z m91 -35 c3 -17 2 -36 -4 -42 -7 -7 -10 -4 -10 10 0 10 -3 29
-6 42 -4 12 -2 22 4 22 5 0 12 -14 16 -32z m751 -7 c77 -16 86 -20 60 -26 -16
-4 -70 -18 -120 -31 -102 -27 -115 -29 -115 -13 0 25 55 99 70 94 8 -3 56 -13
105 -24z m908 -18 c7 -23 6 -37 -5 -52 -14 -19 -15 -19 -43 -3 -22 14 -28 25
-29 55 -1 37 0 38 34 35 29 -3 36 -8 43 -35z m-94 13 c9 -11 7 -22 -10 -50
-11 -20 -23 -36 -26 -36 -3 0 -31 6 -62 14 -31 8 -79 17 -106 21 -66 8 -94 24
-45 26 27 1 180 26 231 38 4 0 12 -5 18 -13z m-986 -28 c-14 -17 -25 -78 -14
-78 15 0 28 -45 20 -68 -17 -46 -85 1 -78 54 0 4 -5 10 -12 14 -10 7 -10 14 1
39 7 17 15 29 19 27 3 -2 20 4 36 14 33 19 44 18 28 -2z m1313 -1 c16 6 70
-26 103 -61 28 -30 15 -33 -37 -10 -74 33 -101 48 -96 56 3 4 1 8 -4 8 -6 0
-13 7 -16 15 -5 14 -3 14 15 1 12 -8 27 -12 35 -9z m-1636 -8 c0 -11 4 -18 9
-14 6 3 6 -7 0 -27 -5 -18 -9 -34 -9 -36 0 -1 -9 3 -21 10 -17 11 -22 10 -34
-6 -11 -15 -15 -16 -19 -5 -13 41 -13 59 0 70 11 9 14 8 14 -2 1 -10 4 -9 14
3 7 10 16 15 19 11 4 -3 7 -1 7 5 0 7 5 12 10 12 6 0 10 -9 10 -21z m2049 -34
c12 -13 27 -22 32 -19 5 3 9 -2 9 -11 0 -14 -3 -14 -26 2 -30 19 -64 25 -64
10 0 -6 -3 -8 -6 -5 -3 4 -1 16 6 27 8 17 8 21 -4 21 -7 0 -16 7 -20 15 -5 14
-2 14 22 1 15 -9 38 -27 51 -41z m-2401 23 c1 -7 4 -25 8 -40 4 -17 2 -28 -4
-28 -13 0 -26 55 -17 70 8 13 11 13 13 -2z m814 -73 c-45 -38 -82 -49 -101
-31 -12 13 -12 16 0 21 120 44 144 46 101 10z m1605 3 c6 -5 24 -11 40 -12 15
-2 32 -4 36 -5 5 0 5 -6 1 -13 -4 -7 -3 -8 4 -4 6 4 28 -3 49 -14 l38 -21 -60
5 c-85 7 -185 52 -170 76 6 9 44 1 62 -12z m-807 -34 c0 -20 -19 -17 -65 7
-63 33 -62 39 4 22 38 -10 61 -21 61 -29z m680 -1 c14 -16 13 -20 -7 -27 -10
-4 -14 -4 -11 0 4 3 1 19 -7 35 -19 36 -19 50 0 24 8 -11 19 -25 25 -32z
m-1437 10 c-4 -10 -9 -11 -19 -2 -18 15 -18 15 5 15 11 0 17 -5 14 -13z m841
-22 c-19 -31 -29 -36 -58 -25 -19 7 -21 30 -4 40 13 8 71 22 76 18 2 -1 -4
-16 -14 -33z m-1564 10 c0 -4 -3 -10 -6 -14 -8 -7 -33 16 -28 25 6 9 34 -1 34
-11z m1320 7 c0 -4 -6 -8 -14 -8 -8 0 -17 4 -20 8 -2 4 4 8 15 8 10 0 19 -4
19 -8z m84 -43 c-4 -8 -8 -15 -10 -15 -2 0 -4 7 -4 15 0 8 4 15 10 15 5 0 7
-7 4 -15z m816 -5 c18 0 38 -24 72 -87 23 -41 23 -50 1 -31 -10 8 -30 19 -44
25 -31 14 -99 71 -99 84 0 13 44 29 48 18 2 -5 12 -9 22 -9z m-2301 -29 c12
-21 5 -32 -15 -25 -47 14 -47 14 -34 29 17 20 37 19 49 -4z m686 -11 c13 -6
15 -9 5 -9 -8 0 -22 4 -30 9 -18 12 -2 12 25 0z m207 -65 c-7 -62 -42 -34 -42
34 l0 44 23 -21 c18 -17 22 -30 19 -57z m-968 56 c3 -4 -1 -17 -9 -27 -13 -16
-16 -17 -24 -4 -7 9 -6 19 1 27 12 15 25 17 32 4z m326 -31 c0 -5 -5 -10 -11
-10 -5 0 -7 5 -4 10 3 6 8 10 11 10 2 0 4 -4 4 -10z m45 0 c-3 -5 -14 -10 -23
-9 -14 0 -13 2 3 9 27 11 27 11 20 0z m1030 -29 c3 -5 1 -12 -5 -16 -5 -3 -10
1 -10 9 0 18 6 21 15 7z m20 -149 c-3 -3 -11 0 -18 7 -9 10 -8 11 6 5 10 -3
15 -9 12 -12z m249 -3 c-10 -12 -32 -27 -49 -35 -17 -8 -22 -9 -10 -2 10 7 28
23 40 35 11 13 24 23 29 23 5 0 1 -9 -10 -21z m-171 -16 c-7 -2 -19 -2 -25 0
-7 3 -2 5 12 5 14 0 19 -2 13 -5z m-574 -21 c10 -19 -10 -62 -29 -62 -9 0 -7
26 3 36 4 4 7 12 7 18 0 5 -6 1 -14 -10 -19 -25 -31 -12 -14 15 16 26 34 27
47 3z m531 -12 c0 -5 8 -10 18 -11 12 0 13 -2 3 -6 -11 -5 -11 -7 0 -14 11 -7
10 -9 -3 -9 -10 0 -18 5 -18 11 0 5 -4 8 -9 4 -6 -3 -9 4 -8 15 1 20 17 29 17
10z m-740 -60 c-6 -11 -13 -20 -16 -20 -2 0 0 9 6 20 6 11 13 20 16 20 2 0 0
-9 -6 -20z m80 10 c0 -5 -6 -10 -12 -10 -7 0 -24 -3 -38 -6 l-25 -6 25 15 c30
18 50 21 50 7z m6 -74 c-8 -19 -12 -37 -9 -40 3 -3 -2 -12 -11 -21 -14 -15
-15 -13 -10 17 6 32 29 78 39 78 3 0 -1 -15 -9 -34z m789 -16 c10 -11 16 -20
13 -20 -3 0 -13 9 -23 20 -10 11 -16 20 -13 20 3 0 13 -9 23 -20z"/>
<path d="M523 3867 c20 -16 23 -32 5 -21 -10 5 -10 4 -1 -6 12 -13 37 -4 28
11 -4 5 -16 14 -28 19 -20 10 -20 10 -4 -3z"/>
<path d="M610 2090 c0 -6 7 -10 15 -10 8 0 15 2 15 4 0 2 -7 6 -15 10 -8 3
-15 1 -15 -4z"/>
<path d="M790 1735 c7 -9 15 -13 17 -11 7 7 -7 26 -19 26 -6 0 -6 -6 2 -15z"/>
<path d="M911 1644 c0 -11 3 -14 6 -6 3 7 2 16 -1 19 -3 4 -6 -2 -5 -13z"/>
<path d="M3250 1539 c0 -5 5 -7 10 -4 6 3 10 8 10 11 0 2 -4 4 -10 4 -5 0 -10
-5 -10 -11z"/>
<path d="M3040 1260 c0 -5 5 -10 10 -10 6 0 10 5 10 10 0 6 -4 10 -10 10 -5 0
-10 -4 -10 -10z"/>
<path d="M3518 1023 c7 -3 16 -2 19 1 4 3 -2 6 -13 5 -11 0 -14 -3 -6 -6z"/>
<path d="M3046 752 c-2 -4 6 -8 19 -8 13 0 21 4 19 8 -3 4 -11 8 -19 8 -8 0
-16 -4 -19 -8z"/>
<path d="M1411 714 c0 -11 3 -14 6 -6 3 7 2 16 -1 19 -3 4 -6 -2 -5 -13z"/>
<path d="M3435 730 c3 -5 8 -10 11 -10 2 0 4 5 4 10 0 6 -5 10 -11 10 -5 0 -7
-4 -4 -10z"/>
</g>
</svg>
